G04 #@! TF.GenerationSoftware,KiCad,Pcbnew,(5.1.5)-3*
G04 #@! TF.CreationDate,2020-06-21T17:55:31-07:00*
G04 #@! TF.ProjectId,CB030 redesign,43423033-3020-4726-9564-657369676e2e,rev?*
G04 #@! TF.SameCoordinates,Original*
G04 #@! TF.FileFunction,Legend,Bot*
G04 #@! TF.FilePolarity,Positive*
%FSLAX46Y46*%
G04 Gerber Fmt 4.6, Leading zero omitted, Abs format (unit mm)*
G04 Created by KiCad (PCBNEW (5.1.5)-3) date 2020-06-21 17:55:31*
%MOMM*%
%LPD*%
G04 APERTURE LIST*
%ADD10C,0.120000*%
%ADD11C,0.150000*%
G04 APERTURE END LIST*
D10*
X33095000Y-50484248D02*
X33095000Y-51006752D01*
X31675000Y-50484248D02*
X31675000Y-51006752D01*
X39489748Y-41200000D02*
X40012252Y-41200000D01*
X39489748Y-42620000D02*
X40012252Y-42620000D01*
X36333500Y-50475248D02*
X36333500Y-50997752D01*
X34913500Y-50475248D02*
X34913500Y-50997752D01*
X39480748Y-51042500D02*
X40003252Y-51042500D01*
X39480748Y-52462500D02*
X40003252Y-52462500D01*
X73643748Y-39635500D02*
X74166252Y-39635500D01*
X73643748Y-38215500D02*
X74166252Y-38215500D01*
X65666252Y-42112000D02*
X65143748Y-42112000D01*
X65666252Y-40692000D02*
X65143748Y-40692000D01*
X78787248Y-44715500D02*
X79309752Y-44715500D01*
X78787248Y-43295500D02*
X79309752Y-43295500D01*
X73661748Y-53455500D02*
X74184252Y-53455500D01*
X73661748Y-54875500D02*
X74184252Y-54875500D01*
X65675252Y-43295500D02*
X65152748Y-43295500D01*
X65675252Y-44715500D02*
X65152748Y-44715500D01*
X65675252Y-45899000D02*
X65152748Y-45899000D01*
X65675252Y-47319000D02*
X65152748Y-47319000D01*
X54789000Y-25715752D02*
X54789000Y-25193248D01*
X56209000Y-25715752D02*
X56209000Y-25193248D01*
X65666252Y-50915500D02*
X65143748Y-50915500D01*
X65666252Y-52335500D02*
X65143748Y-52335500D01*
X38869252Y-63892500D02*
X38346748Y-63892500D01*
X38869252Y-62472500D02*
X38346748Y-62472500D01*
X91111000Y-101220748D02*
X91111000Y-101743252D01*
X92531000Y-101220748D02*
X92531000Y-101743252D01*
X78723748Y-50915500D02*
X79246252Y-50915500D01*
X78723748Y-52335500D02*
X79246252Y-52335500D01*
X78796248Y-45899000D02*
X79318752Y-45899000D01*
X78796248Y-47319000D02*
X79318752Y-47319000D01*
X30872500Y-37989252D02*
X30872500Y-37466748D01*
X29452500Y-37989252D02*
X29452500Y-37466748D01*
X78787248Y-40755500D02*
X79309752Y-40755500D01*
X78787248Y-42175500D02*
X79309752Y-42175500D01*
X38878252Y-64822000D02*
X38355748Y-64822000D01*
X38878252Y-66242000D02*
X38355748Y-66242000D01*
X32945000Y-36592252D02*
X32945000Y-36069748D01*
X34365000Y-36592252D02*
X34365000Y-36069748D01*
X98413500Y-81771748D02*
X98413500Y-82294252D01*
X99833500Y-81771748D02*
X99833500Y-82294252D01*
X38850500Y-36592252D02*
X38850500Y-36069748D01*
X40270500Y-36592252D02*
X40270500Y-36069748D01*
X98119000Y-25715752D02*
X98119000Y-25193248D01*
X96699000Y-25715752D02*
X96699000Y-25193248D01*
X38878252Y-68528000D02*
X38355748Y-68528000D01*
X38878252Y-67108000D02*
X38355748Y-67108000D01*
X29452500Y-45195748D02*
X29452500Y-45718252D01*
X30872500Y-45195748D02*
X30872500Y-45718252D01*
X29389000Y-25733752D02*
X29389000Y-25211248D01*
X30809000Y-25733752D02*
X30809000Y-25211248D01*
X71680000Y-110164748D02*
X71680000Y-110687252D01*
X73100000Y-110164748D02*
X73100000Y-110687252D01*
X38355748Y-100509000D02*
X38878252Y-100509000D01*
X38355748Y-101929000D02*
X38878252Y-101929000D01*
X38337748Y-99897000D02*
X38860252Y-99897000D01*
X38337748Y-98477000D02*
X38860252Y-98477000D01*
X38346748Y-97865000D02*
X38869252Y-97865000D01*
X38346748Y-96445000D02*
X38869252Y-96445000D01*
X38355748Y-94463800D02*
X38878252Y-94463800D01*
X38355748Y-95883800D02*
X38878252Y-95883800D01*
X38355748Y-93864500D02*
X38878252Y-93864500D01*
X38355748Y-92444500D02*
X38878252Y-92444500D01*
X38355748Y-90412500D02*
X38878252Y-90412500D01*
X38355748Y-91832500D02*
X38878252Y-91832500D01*
X38401248Y-89800500D02*
X38923752Y-89800500D01*
X38401248Y-88380500D02*
X38923752Y-88380500D01*
X38381148Y-86450100D02*
X38903652Y-86450100D01*
X38381148Y-87870100D02*
X38903652Y-87870100D01*
D11*
X31092142Y-50102642D02*
X31139761Y-50055023D01*
X31187380Y-49912166D01*
X31187380Y-49816928D01*
X31139761Y-49674071D01*
X31044523Y-49578833D01*
X30949285Y-49531214D01*
X30758809Y-49483595D01*
X30615952Y-49483595D01*
X30425476Y-49531214D01*
X30330238Y-49578833D01*
X30235000Y-49674071D01*
X30187380Y-49816928D01*
X30187380Y-49912166D01*
X30235000Y-50055023D01*
X30282619Y-50102642D01*
X30187380Y-50435976D02*
X30187380Y-51055023D01*
X30568333Y-50721690D01*
X30568333Y-50864547D01*
X30615952Y-50959785D01*
X30663571Y-51007404D01*
X30758809Y-51055023D01*
X30996904Y-51055023D01*
X31092142Y-51007404D01*
X31139761Y-50959785D01*
X31187380Y-50864547D01*
X31187380Y-50578833D01*
X31139761Y-50483595D01*
X31092142Y-50435976D01*
X30282619Y-51435976D02*
X30235000Y-51483595D01*
X30187380Y-51578833D01*
X30187380Y-51816928D01*
X30235000Y-51912166D01*
X30282619Y-51959785D01*
X30377857Y-52007404D01*
X30473095Y-52007404D01*
X30615952Y-51959785D01*
X31187380Y-51388357D01*
X31187380Y-52007404D01*
X40393857Y-43917142D02*
X40441476Y-43964761D01*
X40584333Y-44012380D01*
X40679571Y-44012380D01*
X40822428Y-43964761D01*
X40917666Y-43869523D01*
X40965285Y-43774285D01*
X41012904Y-43583809D01*
X41012904Y-43440952D01*
X40965285Y-43250476D01*
X40917666Y-43155238D01*
X40822428Y-43060000D01*
X40679571Y-43012380D01*
X40584333Y-43012380D01*
X40441476Y-43060000D01*
X40393857Y-43107619D01*
X40060523Y-43012380D02*
X39441476Y-43012380D01*
X39774809Y-43393333D01*
X39631952Y-43393333D01*
X39536714Y-43440952D01*
X39489095Y-43488571D01*
X39441476Y-43583809D01*
X39441476Y-43821904D01*
X39489095Y-43917142D01*
X39536714Y-43964761D01*
X39631952Y-44012380D01*
X39917666Y-44012380D01*
X40012904Y-43964761D01*
X40060523Y-43917142D01*
X38489095Y-44012380D02*
X39060523Y-44012380D01*
X38774809Y-44012380D02*
X38774809Y-43012380D01*
X38870047Y-43155238D01*
X38965285Y-43250476D01*
X39060523Y-43298095D01*
X34330642Y-50093642D02*
X34378261Y-50046023D01*
X34425880Y-49903166D01*
X34425880Y-49807928D01*
X34378261Y-49665071D01*
X34283023Y-49569833D01*
X34187785Y-49522214D01*
X33997309Y-49474595D01*
X33854452Y-49474595D01*
X33663976Y-49522214D01*
X33568738Y-49569833D01*
X33473500Y-49665071D01*
X33425880Y-49807928D01*
X33425880Y-49903166D01*
X33473500Y-50046023D01*
X33521119Y-50093642D01*
X33425880Y-50426976D02*
X33425880Y-51046023D01*
X33806833Y-50712690D01*
X33806833Y-50855547D01*
X33854452Y-50950785D01*
X33902071Y-50998404D01*
X33997309Y-51046023D01*
X34235404Y-51046023D01*
X34330642Y-50998404D01*
X34378261Y-50950785D01*
X34425880Y-50855547D01*
X34425880Y-50569833D01*
X34378261Y-50474595D01*
X34330642Y-50426976D01*
X33425880Y-51665071D02*
X33425880Y-51760309D01*
X33473500Y-51855547D01*
X33521119Y-51903166D01*
X33616357Y-51950785D01*
X33806833Y-51998404D01*
X34044928Y-51998404D01*
X34235404Y-51950785D01*
X34330642Y-51903166D01*
X34378261Y-51855547D01*
X34425880Y-51760309D01*
X34425880Y-51665071D01*
X34378261Y-51569833D01*
X34330642Y-51522214D01*
X34235404Y-51474595D01*
X34044928Y-51426976D01*
X33806833Y-51426976D01*
X33616357Y-51474595D01*
X33521119Y-51522214D01*
X33473500Y-51569833D01*
X33425880Y-51665071D01*
X40384857Y-53759642D02*
X40432476Y-53807261D01*
X40575333Y-53854880D01*
X40670571Y-53854880D01*
X40813428Y-53807261D01*
X40908666Y-53712023D01*
X40956285Y-53616785D01*
X41003904Y-53426309D01*
X41003904Y-53283452D01*
X40956285Y-53092976D01*
X40908666Y-52997738D01*
X40813428Y-52902500D01*
X40670571Y-52854880D01*
X40575333Y-52854880D01*
X40432476Y-52902500D01*
X40384857Y-52950119D01*
X40003904Y-52950119D02*
X39956285Y-52902500D01*
X39861047Y-52854880D01*
X39622952Y-52854880D01*
X39527714Y-52902500D01*
X39480095Y-52950119D01*
X39432476Y-53045357D01*
X39432476Y-53140595D01*
X39480095Y-53283452D01*
X40051523Y-53854880D01*
X39432476Y-53854880D01*
X38956285Y-53854880D02*
X38765809Y-53854880D01*
X38670571Y-53807261D01*
X38622952Y-53759642D01*
X38527714Y-53616785D01*
X38480095Y-53426309D01*
X38480095Y-53045357D01*
X38527714Y-52950119D01*
X38575333Y-52902500D01*
X38670571Y-52854880D01*
X38861047Y-52854880D01*
X38956285Y-52902500D01*
X39003904Y-52950119D01*
X39051523Y-53045357D01*
X39051523Y-53283452D01*
X39003904Y-53378690D01*
X38956285Y-53426309D01*
X38861047Y-53473928D01*
X38670571Y-53473928D01*
X38575333Y-53426309D01*
X38527714Y-53378690D01*
X38480095Y-53283452D01*
X74071666Y-40932642D02*
X74119285Y-40980261D01*
X74262142Y-41027880D01*
X74357380Y-41027880D01*
X74500238Y-40980261D01*
X74595476Y-40885023D01*
X74643095Y-40789785D01*
X74690714Y-40599309D01*
X74690714Y-40456452D01*
X74643095Y-40265976D01*
X74595476Y-40170738D01*
X74500238Y-40075500D01*
X74357380Y-40027880D01*
X74262142Y-40027880D01*
X74119285Y-40075500D01*
X74071666Y-40123119D01*
X73214523Y-40361214D02*
X73214523Y-41027880D01*
X73452619Y-39980261D02*
X73690714Y-40694547D01*
X73071666Y-40694547D01*
X65571666Y-40109142D02*
X65619285Y-40156761D01*
X65762142Y-40204380D01*
X65857380Y-40204380D01*
X66000238Y-40156761D01*
X66095476Y-40061523D01*
X66143095Y-39966285D01*
X66190714Y-39775809D01*
X66190714Y-39632952D01*
X66143095Y-39442476D01*
X66095476Y-39347238D01*
X66000238Y-39252000D01*
X65857380Y-39204380D01*
X65762142Y-39204380D01*
X65619285Y-39252000D01*
X65571666Y-39299619D01*
X64666904Y-39204380D02*
X65143095Y-39204380D01*
X65190714Y-39680571D01*
X65143095Y-39632952D01*
X65047857Y-39585333D01*
X64809761Y-39585333D01*
X64714523Y-39632952D01*
X64666904Y-39680571D01*
X64619285Y-39775809D01*
X64619285Y-40013904D01*
X64666904Y-40109142D01*
X64714523Y-40156761D01*
X64809761Y-40204380D01*
X65047857Y-40204380D01*
X65143095Y-40156761D01*
X65190714Y-40109142D01*
X79215166Y-46012642D02*
X79262785Y-46060261D01*
X79405642Y-46107880D01*
X79500880Y-46107880D01*
X79643738Y-46060261D01*
X79738976Y-45965023D01*
X79786595Y-45869785D01*
X79834214Y-45679309D01*
X79834214Y-45536452D01*
X79786595Y-45345976D01*
X79738976Y-45250738D01*
X79643738Y-45155500D01*
X79500880Y-45107880D01*
X79405642Y-45107880D01*
X79262785Y-45155500D01*
X79215166Y-45203119D01*
X78358023Y-45107880D02*
X78548500Y-45107880D01*
X78643738Y-45155500D01*
X78691357Y-45203119D01*
X78786595Y-45345976D01*
X78834214Y-45536452D01*
X78834214Y-45917404D01*
X78786595Y-46012642D01*
X78738976Y-46060261D01*
X78643738Y-46107880D01*
X78453261Y-46107880D01*
X78358023Y-46060261D01*
X78310404Y-46012642D01*
X78262785Y-45917404D01*
X78262785Y-45679309D01*
X78310404Y-45584071D01*
X78358023Y-45536452D01*
X78453261Y-45488833D01*
X78643738Y-45488833D01*
X78738976Y-45536452D01*
X78786595Y-45584071D01*
X78834214Y-45679309D01*
X74089666Y-56172642D02*
X74137285Y-56220261D01*
X74280142Y-56267880D01*
X74375380Y-56267880D01*
X74518238Y-56220261D01*
X74613476Y-56125023D01*
X74661095Y-56029785D01*
X74708714Y-55839309D01*
X74708714Y-55696452D01*
X74661095Y-55505976D01*
X74613476Y-55410738D01*
X74518238Y-55315500D01*
X74375380Y-55267880D01*
X74280142Y-55267880D01*
X74137285Y-55315500D01*
X74089666Y-55363119D01*
X73756333Y-55267880D02*
X73089666Y-55267880D01*
X73518238Y-56267880D01*
X65580666Y-42712642D02*
X65628285Y-42760261D01*
X65771142Y-42807880D01*
X65866380Y-42807880D01*
X66009238Y-42760261D01*
X66104476Y-42665023D01*
X66152095Y-42569785D01*
X66199714Y-42379309D01*
X66199714Y-42236452D01*
X66152095Y-42045976D01*
X66104476Y-41950738D01*
X66009238Y-41855500D01*
X65866380Y-41807880D01*
X65771142Y-41807880D01*
X65628285Y-41855500D01*
X65580666Y-41903119D01*
X65009238Y-42236452D02*
X65104476Y-42188833D01*
X65152095Y-42141214D01*
X65199714Y-42045976D01*
X65199714Y-41998357D01*
X65152095Y-41903119D01*
X65104476Y-41855500D01*
X65009238Y-41807880D01*
X64818761Y-41807880D01*
X64723523Y-41855500D01*
X64675904Y-41903119D01*
X64628285Y-41998357D01*
X64628285Y-42045976D01*
X64675904Y-42141214D01*
X64723523Y-42188833D01*
X64818761Y-42236452D01*
X65009238Y-42236452D01*
X65104476Y-42284071D01*
X65152095Y-42331690D01*
X65199714Y-42426928D01*
X65199714Y-42617404D01*
X65152095Y-42712642D01*
X65104476Y-42760261D01*
X65009238Y-42807880D01*
X64818761Y-42807880D01*
X64723523Y-42760261D01*
X64675904Y-42712642D01*
X64628285Y-42617404D01*
X64628285Y-42426928D01*
X64675904Y-42331690D01*
X64723523Y-42284071D01*
X64818761Y-42236452D01*
X65580666Y-45316142D02*
X65628285Y-45363761D01*
X65771142Y-45411380D01*
X65866380Y-45411380D01*
X66009238Y-45363761D01*
X66104476Y-45268523D01*
X66152095Y-45173285D01*
X66199714Y-44982809D01*
X66199714Y-44839952D01*
X66152095Y-44649476D01*
X66104476Y-44554238D01*
X66009238Y-44459000D01*
X65866380Y-44411380D01*
X65771142Y-44411380D01*
X65628285Y-44459000D01*
X65580666Y-44506619D01*
X65104476Y-45411380D02*
X64914000Y-45411380D01*
X64818761Y-45363761D01*
X64771142Y-45316142D01*
X64675904Y-45173285D01*
X64628285Y-44982809D01*
X64628285Y-44601857D01*
X64675904Y-44506619D01*
X64723523Y-44459000D01*
X64818761Y-44411380D01*
X65009238Y-44411380D01*
X65104476Y-44459000D01*
X65152095Y-44506619D01*
X65199714Y-44601857D01*
X65199714Y-44839952D01*
X65152095Y-44935190D01*
X65104476Y-44982809D01*
X65009238Y-45030428D01*
X64818761Y-45030428D01*
X64723523Y-44982809D01*
X64675904Y-44935190D01*
X64628285Y-44839952D01*
X57506142Y-24811642D02*
X57553761Y-24764023D01*
X57601380Y-24621166D01*
X57601380Y-24525928D01*
X57553761Y-24383071D01*
X57458523Y-24287833D01*
X57363285Y-24240214D01*
X57172809Y-24192595D01*
X57029952Y-24192595D01*
X56839476Y-24240214D01*
X56744238Y-24287833D01*
X56649000Y-24383071D01*
X56601380Y-24525928D01*
X56601380Y-24621166D01*
X56649000Y-24764023D01*
X56696619Y-24811642D01*
X57601380Y-25764023D02*
X57601380Y-25192595D01*
X57601380Y-25478309D02*
X56601380Y-25478309D01*
X56744238Y-25383071D01*
X56839476Y-25287833D01*
X56887095Y-25192595D01*
X56601380Y-26383071D02*
X56601380Y-26478309D01*
X56649000Y-26573547D01*
X56696619Y-26621166D01*
X56791857Y-26668785D01*
X56982333Y-26716404D01*
X57220428Y-26716404D01*
X57410904Y-26668785D01*
X57506142Y-26621166D01*
X57553761Y-26573547D01*
X57601380Y-26478309D01*
X57601380Y-26383071D01*
X57553761Y-26287833D01*
X57506142Y-26240214D01*
X57410904Y-26192595D01*
X57220428Y-26144976D01*
X56982333Y-26144976D01*
X56791857Y-26192595D01*
X56696619Y-26240214D01*
X56649000Y-26287833D01*
X56601380Y-26383071D01*
X66047857Y-50332642D02*
X66095476Y-50380261D01*
X66238333Y-50427880D01*
X66333571Y-50427880D01*
X66476428Y-50380261D01*
X66571666Y-50285023D01*
X66619285Y-50189785D01*
X66666904Y-49999309D01*
X66666904Y-49856452D01*
X66619285Y-49665976D01*
X66571666Y-49570738D01*
X66476428Y-49475500D01*
X66333571Y-49427880D01*
X66238333Y-49427880D01*
X66095476Y-49475500D01*
X66047857Y-49523119D01*
X65095476Y-50427880D02*
X65666904Y-50427880D01*
X65381190Y-50427880D02*
X65381190Y-49427880D01*
X65476428Y-49570738D01*
X65571666Y-49665976D01*
X65666904Y-49713595D01*
X64143095Y-50427880D02*
X64714523Y-50427880D01*
X64428809Y-50427880D02*
X64428809Y-49427880D01*
X64524047Y-49570738D01*
X64619285Y-49665976D01*
X64714523Y-49713595D01*
X39250857Y-61889642D02*
X39298476Y-61937261D01*
X39441333Y-61984880D01*
X39536571Y-61984880D01*
X39679428Y-61937261D01*
X39774666Y-61842023D01*
X39822285Y-61746785D01*
X39869904Y-61556309D01*
X39869904Y-61413452D01*
X39822285Y-61222976D01*
X39774666Y-61127738D01*
X39679428Y-61032500D01*
X39536571Y-60984880D01*
X39441333Y-60984880D01*
X39298476Y-61032500D01*
X39250857Y-61080119D01*
X38298476Y-61984880D02*
X38869904Y-61984880D01*
X38584190Y-61984880D02*
X38584190Y-60984880D01*
X38679428Y-61127738D01*
X38774666Y-61222976D01*
X38869904Y-61270595D01*
X37917523Y-61080119D02*
X37869904Y-61032500D01*
X37774666Y-60984880D01*
X37536571Y-60984880D01*
X37441333Y-61032500D01*
X37393714Y-61080119D01*
X37346095Y-61175357D01*
X37346095Y-61270595D01*
X37393714Y-61413452D01*
X37965142Y-61984880D01*
X37346095Y-61984880D01*
X90528142Y-100839142D02*
X90575761Y-100791523D01*
X90623380Y-100648666D01*
X90623380Y-100553428D01*
X90575761Y-100410571D01*
X90480523Y-100315333D01*
X90385285Y-100267714D01*
X90194809Y-100220095D01*
X90051952Y-100220095D01*
X89861476Y-100267714D01*
X89766238Y-100315333D01*
X89671000Y-100410571D01*
X89623380Y-100553428D01*
X89623380Y-100648666D01*
X89671000Y-100791523D01*
X89718619Y-100839142D01*
X90623380Y-101791523D02*
X90623380Y-101220095D01*
X90623380Y-101505809D02*
X89623380Y-101505809D01*
X89766238Y-101410571D01*
X89861476Y-101315333D01*
X89909095Y-101220095D01*
X89623380Y-102124857D02*
X89623380Y-102743904D01*
X90004333Y-102410571D01*
X90004333Y-102553428D01*
X90051952Y-102648666D01*
X90099571Y-102696285D01*
X90194809Y-102743904D01*
X90432904Y-102743904D01*
X90528142Y-102696285D01*
X90575761Y-102648666D01*
X90623380Y-102553428D01*
X90623380Y-102267714D01*
X90575761Y-102172476D01*
X90528142Y-102124857D01*
X79627857Y-53632642D02*
X79675476Y-53680261D01*
X79818333Y-53727880D01*
X79913571Y-53727880D01*
X80056428Y-53680261D01*
X80151666Y-53585023D01*
X80199285Y-53489785D01*
X80246904Y-53299309D01*
X80246904Y-53156452D01*
X80199285Y-52965976D01*
X80151666Y-52870738D01*
X80056428Y-52775500D01*
X79913571Y-52727880D01*
X79818333Y-52727880D01*
X79675476Y-52775500D01*
X79627857Y-52823119D01*
X78675476Y-53727880D02*
X79246904Y-53727880D01*
X78961190Y-53727880D02*
X78961190Y-52727880D01*
X79056428Y-52870738D01*
X79151666Y-52965976D01*
X79246904Y-53013595D01*
X77818333Y-53061214D02*
X77818333Y-53727880D01*
X78056428Y-52680261D02*
X78294523Y-53394547D01*
X77675476Y-53394547D01*
X79700357Y-48616142D02*
X79747976Y-48663761D01*
X79890833Y-48711380D01*
X79986071Y-48711380D01*
X80128928Y-48663761D01*
X80224166Y-48568523D01*
X80271785Y-48473285D01*
X80319404Y-48282809D01*
X80319404Y-48139952D01*
X80271785Y-47949476D01*
X80224166Y-47854238D01*
X80128928Y-47759000D01*
X79986071Y-47711380D01*
X79890833Y-47711380D01*
X79747976Y-47759000D01*
X79700357Y-47806619D01*
X78747976Y-48711380D02*
X79319404Y-48711380D01*
X79033690Y-48711380D02*
X79033690Y-47711380D01*
X79128928Y-47854238D01*
X79224166Y-47949476D01*
X79319404Y-47997095D01*
X77843214Y-47711380D02*
X78319404Y-47711380D01*
X78367023Y-48187571D01*
X78319404Y-48139952D01*
X78224166Y-48092333D01*
X77986071Y-48092333D01*
X77890833Y-48139952D01*
X77843214Y-48187571D01*
X77795595Y-48282809D01*
X77795595Y-48520904D01*
X77843214Y-48616142D01*
X77890833Y-48663761D01*
X77986071Y-48711380D01*
X78224166Y-48711380D01*
X78319404Y-48663761D01*
X78367023Y-48616142D01*
X32169642Y-37085142D02*
X32217261Y-37037523D01*
X32264880Y-36894666D01*
X32264880Y-36799428D01*
X32217261Y-36656571D01*
X32122023Y-36561333D01*
X32026785Y-36513714D01*
X31836309Y-36466095D01*
X31693452Y-36466095D01*
X31502976Y-36513714D01*
X31407738Y-36561333D01*
X31312500Y-36656571D01*
X31264880Y-36799428D01*
X31264880Y-36894666D01*
X31312500Y-37037523D01*
X31360119Y-37085142D01*
X32264880Y-38037523D02*
X32264880Y-37466095D01*
X32264880Y-37751809D02*
X31264880Y-37751809D01*
X31407738Y-37656571D01*
X31502976Y-37561333D01*
X31550595Y-37466095D01*
X31264880Y-38894666D02*
X31264880Y-38704190D01*
X31312500Y-38608952D01*
X31360119Y-38561333D01*
X31502976Y-38466095D01*
X31693452Y-38418476D01*
X32074404Y-38418476D01*
X32169642Y-38466095D01*
X32217261Y-38513714D01*
X32264880Y-38608952D01*
X32264880Y-38799428D01*
X32217261Y-38894666D01*
X32169642Y-38942285D01*
X32074404Y-38989904D01*
X31836309Y-38989904D01*
X31741071Y-38942285D01*
X31693452Y-38894666D01*
X31645833Y-38799428D01*
X31645833Y-38608952D01*
X31693452Y-38513714D01*
X31741071Y-38466095D01*
X31836309Y-38418476D01*
X79691357Y-43472642D02*
X79738976Y-43520261D01*
X79881833Y-43567880D01*
X79977071Y-43567880D01*
X80119928Y-43520261D01*
X80215166Y-43425023D01*
X80262785Y-43329785D01*
X80310404Y-43139309D01*
X80310404Y-42996452D01*
X80262785Y-42805976D01*
X80215166Y-42710738D01*
X80119928Y-42615500D01*
X79977071Y-42567880D01*
X79881833Y-42567880D01*
X79738976Y-42615500D01*
X79691357Y-42663119D01*
X78738976Y-43567880D02*
X79310404Y-43567880D01*
X79024690Y-43567880D02*
X79024690Y-42567880D01*
X79119928Y-42710738D01*
X79215166Y-42805976D01*
X79310404Y-42853595D01*
X78405642Y-42567880D02*
X77738976Y-42567880D01*
X78167547Y-43567880D01*
X39259857Y-64239142D02*
X39307476Y-64286761D01*
X39450333Y-64334380D01*
X39545571Y-64334380D01*
X39688428Y-64286761D01*
X39783666Y-64191523D01*
X39831285Y-64096285D01*
X39878904Y-63905809D01*
X39878904Y-63762952D01*
X39831285Y-63572476D01*
X39783666Y-63477238D01*
X39688428Y-63382000D01*
X39545571Y-63334380D01*
X39450333Y-63334380D01*
X39307476Y-63382000D01*
X39259857Y-63429619D01*
X38307476Y-64334380D02*
X38878904Y-64334380D01*
X38593190Y-64334380D02*
X38593190Y-63334380D01*
X38688428Y-63477238D01*
X38783666Y-63572476D01*
X38878904Y-63620095D01*
X37736047Y-63762952D02*
X37831285Y-63715333D01*
X37878904Y-63667714D01*
X37926523Y-63572476D01*
X37926523Y-63524857D01*
X37878904Y-63429619D01*
X37831285Y-63382000D01*
X37736047Y-63334380D01*
X37545571Y-63334380D01*
X37450333Y-63382000D01*
X37402714Y-63429619D01*
X37355095Y-63524857D01*
X37355095Y-63572476D01*
X37402714Y-63667714D01*
X37450333Y-63715333D01*
X37545571Y-63762952D01*
X37736047Y-63762952D01*
X37831285Y-63810571D01*
X37878904Y-63858190D01*
X37926523Y-63953428D01*
X37926523Y-64143904D01*
X37878904Y-64239142D01*
X37831285Y-64286761D01*
X37736047Y-64334380D01*
X37545571Y-64334380D01*
X37450333Y-64286761D01*
X37402714Y-64239142D01*
X37355095Y-64143904D01*
X37355095Y-63953428D01*
X37402714Y-63858190D01*
X37450333Y-63810571D01*
X37545571Y-63762952D01*
X35662142Y-35688142D02*
X35709761Y-35640523D01*
X35757380Y-35497666D01*
X35757380Y-35402428D01*
X35709761Y-35259571D01*
X35614523Y-35164333D01*
X35519285Y-35116714D01*
X35328809Y-35069095D01*
X35185952Y-35069095D01*
X34995476Y-35116714D01*
X34900238Y-35164333D01*
X34805000Y-35259571D01*
X34757380Y-35402428D01*
X34757380Y-35497666D01*
X34805000Y-35640523D01*
X34852619Y-35688142D01*
X35757380Y-36640523D02*
X35757380Y-36069095D01*
X35757380Y-36354809D02*
X34757380Y-36354809D01*
X34900238Y-36259571D01*
X34995476Y-36164333D01*
X35043095Y-36069095D01*
X35757380Y-37116714D02*
X35757380Y-37307190D01*
X35709761Y-37402428D01*
X35662142Y-37450047D01*
X35519285Y-37545285D01*
X35328809Y-37592904D01*
X34947857Y-37592904D01*
X34852619Y-37545285D01*
X34805000Y-37497666D01*
X34757380Y-37402428D01*
X34757380Y-37211952D01*
X34805000Y-37116714D01*
X34852619Y-37069095D01*
X34947857Y-37021476D01*
X35185952Y-37021476D01*
X35281190Y-37069095D01*
X35328809Y-37116714D01*
X35376428Y-37211952D01*
X35376428Y-37402428D01*
X35328809Y-37497666D01*
X35281190Y-37545285D01*
X35185952Y-37592904D01*
X97830642Y-81390142D02*
X97878261Y-81342523D01*
X97925880Y-81199666D01*
X97925880Y-81104428D01*
X97878261Y-80961571D01*
X97783023Y-80866333D01*
X97687785Y-80818714D01*
X97497309Y-80771095D01*
X97354452Y-80771095D01*
X97163976Y-80818714D01*
X97068738Y-80866333D01*
X96973500Y-80961571D01*
X96925880Y-81104428D01*
X96925880Y-81199666D01*
X96973500Y-81342523D01*
X97021119Y-81390142D01*
X97021119Y-81771095D02*
X96973500Y-81818714D01*
X96925880Y-81913952D01*
X96925880Y-82152047D01*
X96973500Y-82247285D01*
X97021119Y-82294904D01*
X97116357Y-82342523D01*
X97211595Y-82342523D01*
X97354452Y-82294904D01*
X97925880Y-81723476D01*
X97925880Y-82342523D01*
X96925880Y-82961571D02*
X96925880Y-83056809D01*
X96973500Y-83152047D01*
X97021119Y-83199666D01*
X97116357Y-83247285D01*
X97306833Y-83294904D01*
X97544928Y-83294904D01*
X97735404Y-83247285D01*
X97830642Y-83199666D01*
X97878261Y-83152047D01*
X97925880Y-83056809D01*
X97925880Y-82961571D01*
X97878261Y-82866333D01*
X97830642Y-82818714D01*
X97735404Y-82771095D01*
X97544928Y-82723476D01*
X97306833Y-82723476D01*
X97116357Y-82771095D01*
X97021119Y-82818714D01*
X96973500Y-82866333D01*
X96925880Y-82961571D01*
X41567642Y-35688142D02*
X41615261Y-35640523D01*
X41662880Y-35497666D01*
X41662880Y-35402428D01*
X41615261Y-35259571D01*
X41520023Y-35164333D01*
X41424785Y-35116714D01*
X41234309Y-35069095D01*
X41091452Y-35069095D01*
X40900976Y-35116714D01*
X40805738Y-35164333D01*
X40710500Y-35259571D01*
X40662880Y-35402428D01*
X40662880Y-35497666D01*
X40710500Y-35640523D01*
X40758119Y-35688142D01*
X40758119Y-36069095D02*
X40710500Y-36116714D01*
X40662880Y-36211952D01*
X40662880Y-36450047D01*
X40710500Y-36545285D01*
X40758119Y-36592904D01*
X40853357Y-36640523D01*
X40948595Y-36640523D01*
X41091452Y-36592904D01*
X41662880Y-36021476D01*
X41662880Y-36640523D01*
X41662880Y-37592904D02*
X41662880Y-37021476D01*
X41662880Y-37307190D02*
X40662880Y-37307190D01*
X40805738Y-37211952D01*
X40900976Y-37116714D01*
X40948595Y-37021476D01*
X99416142Y-24811642D02*
X99463761Y-24764023D01*
X99511380Y-24621166D01*
X99511380Y-24525928D01*
X99463761Y-24383071D01*
X99368523Y-24287833D01*
X99273285Y-24240214D01*
X99082809Y-24192595D01*
X98939952Y-24192595D01*
X98749476Y-24240214D01*
X98654238Y-24287833D01*
X98559000Y-24383071D01*
X98511380Y-24525928D01*
X98511380Y-24621166D01*
X98559000Y-24764023D01*
X98606619Y-24811642D01*
X98606619Y-25192595D02*
X98559000Y-25240214D01*
X98511380Y-25335452D01*
X98511380Y-25573547D01*
X98559000Y-25668785D01*
X98606619Y-25716404D01*
X98701857Y-25764023D01*
X98797095Y-25764023D01*
X98939952Y-25716404D01*
X99511380Y-25144976D01*
X99511380Y-25764023D01*
X98606619Y-26144976D02*
X98559000Y-26192595D01*
X98511380Y-26287833D01*
X98511380Y-26525928D01*
X98559000Y-26621166D01*
X98606619Y-26668785D01*
X98701857Y-26716404D01*
X98797095Y-26716404D01*
X98939952Y-26668785D01*
X99511380Y-26097357D01*
X99511380Y-26716404D01*
X39259857Y-66525142D02*
X39307476Y-66572761D01*
X39450333Y-66620380D01*
X39545571Y-66620380D01*
X39688428Y-66572761D01*
X39783666Y-66477523D01*
X39831285Y-66382285D01*
X39878904Y-66191809D01*
X39878904Y-66048952D01*
X39831285Y-65858476D01*
X39783666Y-65763238D01*
X39688428Y-65668000D01*
X39545571Y-65620380D01*
X39450333Y-65620380D01*
X39307476Y-65668000D01*
X39259857Y-65715619D01*
X38878904Y-65715619D02*
X38831285Y-65668000D01*
X38736047Y-65620380D01*
X38497952Y-65620380D01*
X38402714Y-65668000D01*
X38355095Y-65715619D01*
X38307476Y-65810857D01*
X38307476Y-65906095D01*
X38355095Y-66048952D01*
X38926523Y-66620380D01*
X38307476Y-66620380D01*
X37974142Y-65620380D02*
X37355095Y-65620380D01*
X37688428Y-66001333D01*
X37545571Y-66001333D01*
X37450333Y-66048952D01*
X37402714Y-66096571D01*
X37355095Y-66191809D01*
X37355095Y-66429904D01*
X37402714Y-66525142D01*
X37450333Y-66572761D01*
X37545571Y-66620380D01*
X37831285Y-66620380D01*
X37926523Y-66572761D01*
X37974142Y-66525142D01*
X28869642Y-44814142D02*
X28917261Y-44766523D01*
X28964880Y-44623666D01*
X28964880Y-44528428D01*
X28917261Y-44385571D01*
X28822023Y-44290333D01*
X28726785Y-44242714D01*
X28536309Y-44195095D01*
X28393452Y-44195095D01*
X28202976Y-44242714D01*
X28107738Y-44290333D01*
X28012500Y-44385571D01*
X27964880Y-44528428D01*
X27964880Y-44623666D01*
X28012500Y-44766523D01*
X28060119Y-44814142D01*
X28060119Y-45195095D02*
X28012500Y-45242714D01*
X27964880Y-45337952D01*
X27964880Y-45576047D01*
X28012500Y-45671285D01*
X28060119Y-45718904D01*
X28155357Y-45766523D01*
X28250595Y-45766523D01*
X28393452Y-45718904D01*
X28964880Y-45147476D01*
X28964880Y-45766523D01*
X28298214Y-46623666D02*
X28964880Y-46623666D01*
X27917261Y-46385571D02*
X28631547Y-46147476D01*
X28631547Y-46766523D01*
X32106142Y-24829642D02*
X32153761Y-24782023D01*
X32201380Y-24639166D01*
X32201380Y-24543928D01*
X32153761Y-24401071D01*
X32058523Y-24305833D01*
X31963285Y-24258214D01*
X31772809Y-24210595D01*
X31629952Y-24210595D01*
X31439476Y-24258214D01*
X31344238Y-24305833D01*
X31249000Y-24401071D01*
X31201380Y-24543928D01*
X31201380Y-24639166D01*
X31249000Y-24782023D01*
X31296619Y-24829642D01*
X31296619Y-25210595D02*
X31249000Y-25258214D01*
X31201380Y-25353452D01*
X31201380Y-25591547D01*
X31249000Y-25686785D01*
X31296619Y-25734404D01*
X31391857Y-25782023D01*
X31487095Y-25782023D01*
X31629952Y-25734404D01*
X32201380Y-25162976D01*
X32201380Y-25782023D01*
X31201380Y-26686785D02*
X31201380Y-26210595D01*
X31677571Y-26162976D01*
X31629952Y-26210595D01*
X31582333Y-26305833D01*
X31582333Y-26543928D01*
X31629952Y-26639166D01*
X31677571Y-26686785D01*
X31772809Y-26734404D01*
X32010904Y-26734404D01*
X32106142Y-26686785D01*
X32153761Y-26639166D01*
X32201380Y-26543928D01*
X32201380Y-26305833D01*
X32153761Y-26210595D01*
X32106142Y-26162976D01*
X71097142Y-109783142D02*
X71144761Y-109735523D01*
X71192380Y-109592666D01*
X71192380Y-109497428D01*
X71144761Y-109354571D01*
X71049523Y-109259333D01*
X70954285Y-109211714D01*
X70763809Y-109164095D01*
X70620952Y-109164095D01*
X70430476Y-109211714D01*
X70335238Y-109259333D01*
X70240000Y-109354571D01*
X70192380Y-109497428D01*
X70192380Y-109592666D01*
X70240000Y-109735523D01*
X70287619Y-109783142D01*
X70287619Y-110164095D02*
X70240000Y-110211714D01*
X70192380Y-110306952D01*
X70192380Y-110545047D01*
X70240000Y-110640285D01*
X70287619Y-110687904D01*
X70382857Y-110735523D01*
X70478095Y-110735523D01*
X70620952Y-110687904D01*
X71192380Y-110116476D01*
X71192380Y-110735523D01*
X70192380Y-111592666D02*
X70192380Y-111402190D01*
X70240000Y-111306952D01*
X70287619Y-111259333D01*
X70430476Y-111164095D01*
X70620952Y-111116476D01*
X71001904Y-111116476D01*
X71097142Y-111164095D01*
X71144761Y-111211714D01*
X71192380Y-111306952D01*
X71192380Y-111497428D01*
X71144761Y-111592666D01*
X71097142Y-111640285D01*
X71001904Y-111687904D01*
X70763809Y-111687904D01*
X70668571Y-111640285D01*
X70620952Y-111592666D01*
X70573333Y-111497428D01*
X70573333Y-111306952D01*
X70620952Y-111211714D01*
X70668571Y-111164095D01*
X70763809Y-111116476D01*
X41505166Y-101671380D02*
X41838500Y-101195190D01*
X42076595Y-101671380D02*
X42076595Y-100671380D01*
X41695642Y-100671380D01*
X41600404Y-100719000D01*
X41552785Y-100766619D01*
X41505166Y-100861857D01*
X41505166Y-101004714D01*
X41552785Y-101099952D01*
X41600404Y-101147571D01*
X41695642Y-101195190D01*
X42076595Y-101195190D01*
X41028976Y-101671380D02*
X40838500Y-101671380D01*
X40743261Y-101623761D01*
X40695642Y-101576142D01*
X40600404Y-101433285D01*
X40552785Y-101242809D01*
X40552785Y-100861857D01*
X40600404Y-100766619D01*
X40648023Y-100719000D01*
X40743261Y-100671380D01*
X40933738Y-100671380D01*
X41028976Y-100719000D01*
X41076595Y-100766619D01*
X41124214Y-100861857D01*
X41124214Y-101099952D01*
X41076595Y-101195190D01*
X41028976Y-101242809D01*
X40933738Y-101290428D01*
X40743261Y-101290428D01*
X40648023Y-101242809D01*
X40600404Y-101195190D01*
X40552785Y-101099952D01*
X42425857Y-99639380D02*
X42759190Y-99163190D01*
X42997285Y-99639380D02*
X42997285Y-98639380D01*
X42616333Y-98639380D01*
X42521095Y-98687000D01*
X42473476Y-98734619D01*
X42425857Y-98829857D01*
X42425857Y-98972714D01*
X42473476Y-99067952D01*
X42521095Y-99115571D01*
X42616333Y-99163190D01*
X42997285Y-99163190D01*
X41473476Y-99639380D02*
X42044904Y-99639380D01*
X41759190Y-99639380D02*
X41759190Y-98639380D01*
X41854428Y-98782238D01*
X41949666Y-98877476D01*
X42044904Y-98925095D01*
X40854428Y-98639380D02*
X40759190Y-98639380D01*
X40663952Y-98687000D01*
X40616333Y-98734619D01*
X40568714Y-98829857D01*
X40521095Y-99020333D01*
X40521095Y-99258428D01*
X40568714Y-99448904D01*
X40616333Y-99544142D01*
X40663952Y-99591761D01*
X40759190Y-99639380D01*
X40854428Y-99639380D01*
X40949666Y-99591761D01*
X40997285Y-99544142D01*
X41044904Y-99448904D01*
X41092523Y-99258428D01*
X41092523Y-99020333D01*
X41044904Y-98829857D01*
X40997285Y-98734619D01*
X40949666Y-98687000D01*
X40854428Y-98639380D01*
X42425857Y-97607380D02*
X42759190Y-97131190D01*
X42997285Y-97607380D02*
X42997285Y-96607380D01*
X42616333Y-96607380D01*
X42521095Y-96655000D01*
X42473476Y-96702619D01*
X42425857Y-96797857D01*
X42425857Y-96940714D01*
X42473476Y-97035952D01*
X42521095Y-97083571D01*
X42616333Y-97131190D01*
X42997285Y-97131190D01*
X41473476Y-97607380D02*
X42044904Y-97607380D01*
X41759190Y-97607380D02*
X41759190Y-96607380D01*
X41854428Y-96750238D01*
X41949666Y-96845476D01*
X42044904Y-96893095D01*
X40521095Y-97607380D02*
X41092523Y-97607380D01*
X40806809Y-97607380D02*
X40806809Y-96607380D01*
X40902047Y-96750238D01*
X40997285Y-96845476D01*
X41092523Y-96893095D01*
X42451257Y-95626180D02*
X42784590Y-95149990D01*
X43022685Y-95626180D02*
X43022685Y-94626180D01*
X42641733Y-94626180D01*
X42546495Y-94673800D01*
X42498876Y-94721419D01*
X42451257Y-94816657D01*
X42451257Y-94959514D01*
X42498876Y-95054752D01*
X42546495Y-95102371D01*
X42641733Y-95149990D01*
X43022685Y-95149990D01*
X41498876Y-95626180D02*
X42070304Y-95626180D01*
X41784590Y-95626180D02*
X41784590Y-94626180D01*
X41879828Y-94769038D01*
X41975066Y-94864276D01*
X42070304Y-94911895D01*
X41117923Y-94721419D02*
X41070304Y-94673800D01*
X40975066Y-94626180D01*
X40736971Y-94626180D01*
X40641733Y-94673800D01*
X40594114Y-94721419D01*
X40546495Y-94816657D01*
X40546495Y-94911895D01*
X40594114Y-95054752D01*
X41165542Y-95626180D01*
X40546495Y-95626180D01*
X42438557Y-93594180D02*
X42771890Y-93117990D01*
X43009985Y-93594180D02*
X43009985Y-92594180D01*
X42629033Y-92594180D01*
X42533795Y-92641800D01*
X42486176Y-92689419D01*
X42438557Y-92784657D01*
X42438557Y-92927514D01*
X42486176Y-93022752D01*
X42533795Y-93070371D01*
X42629033Y-93117990D01*
X43009985Y-93117990D01*
X41486176Y-93594180D02*
X42057604Y-93594180D01*
X41771890Y-93594180D02*
X41771890Y-92594180D01*
X41867128Y-92737038D01*
X41962366Y-92832276D01*
X42057604Y-92879895D01*
X41152842Y-92594180D02*
X40533795Y-92594180D01*
X40867128Y-92975133D01*
X40724271Y-92975133D01*
X40629033Y-93022752D01*
X40581414Y-93070371D01*
X40533795Y-93165609D01*
X40533795Y-93403704D01*
X40581414Y-93498942D01*
X40629033Y-93546561D01*
X40724271Y-93594180D01*
X41009985Y-93594180D01*
X41105223Y-93546561D01*
X41152842Y-93498942D01*
X42425857Y-91574880D02*
X42759190Y-91098690D01*
X42997285Y-91574880D02*
X42997285Y-90574880D01*
X42616333Y-90574880D01*
X42521095Y-90622500D01*
X42473476Y-90670119D01*
X42425857Y-90765357D01*
X42425857Y-90908214D01*
X42473476Y-91003452D01*
X42521095Y-91051071D01*
X42616333Y-91098690D01*
X42997285Y-91098690D01*
X41473476Y-91574880D02*
X42044904Y-91574880D01*
X41759190Y-91574880D02*
X41759190Y-90574880D01*
X41854428Y-90717738D01*
X41949666Y-90812976D01*
X42044904Y-90860595D01*
X40616333Y-90908214D02*
X40616333Y-91574880D01*
X40854428Y-90527261D02*
X41092523Y-91241547D01*
X40473476Y-91241547D01*
X42489357Y-89542880D02*
X42822690Y-89066690D01*
X43060785Y-89542880D02*
X43060785Y-88542880D01*
X42679833Y-88542880D01*
X42584595Y-88590500D01*
X42536976Y-88638119D01*
X42489357Y-88733357D01*
X42489357Y-88876214D01*
X42536976Y-88971452D01*
X42584595Y-89019071D01*
X42679833Y-89066690D01*
X43060785Y-89066690D01*
X41536976Y-89542880D02*
X42108404Y-89542880D01*
X41822690Y-89542880D02*
X41822690Y-88542880D01*
X41917928Y-88685738D01*
X42013166Y-88780976D01*
X42108404Y-88828595D01*
X40632214Y-88542880D02*
X41108404Y-88542880D01*
X41156023Y-89019071D01*
X41108404Y-88971452D01*
X41013166Y-88923833D01*
X40775071Y-88923833D01*
X40679833Y-88971452D01*
X40632214Y-89019071D01*
X40584595Y-89114309D01*
X40584595Y-89352404D01*
X40632214Y-89447642D01*
X40679833Y-89495261D01*
X40775071Y-89542880D01*
X41013166Y-89542880D01*
X41108404Y-89495261D01*
X41156023Y-89447642D01*
X42476657Y-87625180D02*
X42809990Y-87148990D01*
X43048085Y-87625180D02*
X43048085Y-86625180D01*
X42667133Y-86625180D01*
X42571895Y-86672800D01*
X42524276Y-86720419D01*
X42476657Y-86815657D01*
X42476657Y-86958514D01*
X42524276Y-87053752D01*
X42571895Y-87101371D01*
X42667133Y-87148990D01*
X43048085Y-87148990D01*
X41524276Y-87625180D02*
X42095704Y-87625180D01*
X41809990Y-87625180D02*
X41809990Y-86625180D01*
X41905228Y-86768038D01*
X42000466Y-86863276D01*
X42095704Y-86910895D01*
X40667133Y-86625180D02*
X40857609Y-86625180D01*
X40952847Y-86672800D01*
X41000466Y-86720419D01*
X41095704Y-86863276D01*
X41143323Y-87053752D01*
X41143323Y-87434704D01*
X41095704Y-87529942D01*
X41048085Y-87577561D01*
X40952847Y-87625180D01*
X40762371Y-87625180D01*
X40667133Y-87577561D01*
X40619514Y-87529942D01*
X40571895Y-87434704D01*
X40571895Y-87196609D01*
X40619514Y-87101371D01*
X40667133Y-87053752D01*
X40762371Y-87006133D01*
X40952847Y-87006133D01*
X41048085Y-87053752D01*
X41095704Y-87101371D01*
X41143323Y-87196609D01*
M02*
