G04 #@! TF.GenerationSoftware,KiCad,Pcbnew,(5.1.5)-3*
G04 #@! TF.CreationDate,2020-06-21T17:55:31-07:00*
G04 #@! TF.ProjectId,CB030 redesign,43423033-3020-4726-9564-657369676e2e,rev?*
G04 #@! TF.SameCoordinates,Original*
G04 #@! TF.FileFunction,Legend,Top*
G04 #@! TF.FilePolarity,Positive*
%FSLAX46Y46*%
G04 Gerber Fmt 4.6, Leading zero omitted, Abs format (unit mm)*
G04 Created by KiCad (PCBNEW (5.1.5)-3) date 2020-06-21 17:55:31*
%MOMM*%
%LPD*%
G04 APERTURE LIST*
%ADD10C,0.120000*%
%ADD11C,0.150000*%
G04 APERTURE END LIST*
D10*
X28621000Y-33451000D02*
X26306000Y-33451000D01*
X41991000Y-33451000D02*
X42306000Y-33451000D01*
X28621000Y-53671000D02*
X28306000Y-53671000D01*
X41991000Y-53671000D02*
X42306000Y-53671000D01*
X16450000Y-79950000D02*
X17780000Y-79950000D01*
X16450000Y-81280000D02*
X16450000Y-79950000D01*
X19050000Y-79950000D02*
X21650000Y-79950000D01*
X19050000Y-82550000D02*
X19050000Y-79950000D01*
X16450000Y-82550000D02*
X19050000Y-82550000D01*
X21650000Y-79950000D02*
X21650000Y-102930000D01*
X16450000Y-82550000D02*
X16450000Y-102930000D01*
X16450000Y-102930000D02*
X21650000Y-102930000D01*
X110430000Y-59750000D02*
X110430000Y-58420000D01*
X111760000Y-59750000D02*
X110430000Y-59750000D01*
X113030000Y-59750000D02*
X113030000Y-57090000D01*
X113030000Y-57090000D02*
X115630000Y-57090000D01*
X113030000Y-59750000D02*
X115630000Y-59750000D01*
X115630000Y-59750000D02*
X115630000Y-57090000D01*
D11*
X89890000Y-63045500D02*
X88890000Y-64045500D01*
X89890000Y-29045500D02*
X54890000Y-29045500D01*
X89890000Y-63045500D02*
X89890000Y-29045500D01*
X54890000Y-64045500D02*
X88890000Y-64045500D01*
X54890000Y-29045500D02*
X54890000Y-64045500D01*
D10*
X110292748Y-82434500D02*
X110815252Y-82434500D01*
X110292748Y-81014500D02*
X110815252Y-81014500D01*
X110292748Y-69140000D02*
X110815252Y-69140000D01*
X110292748Y-70560000D02*
X110815252Y-70560000D01*
X38346748Y-77331500D02*
X38869252Y-77331500D01*
X38346748Y-78751500D02*
X38869252Y-78751500D01*
X102100748Y-102056000D02*
X102623252Y-102056000D01*
X102100748Y-100636000D02*
X102623252Y-100636000D01*
X102590000Y-105204000D02*
X101390000Y-105204000D01*
X98070000Y-105204000D02*
X99270000Y-105204000D01*
X98070000Y-108659563D02*
X98070000Y-105204000D01*
X102590000Y-108659563D02*
X102590000Y-105204000D01*
X101525563Y-109724000D02*
X101390000Y-109724000D01*
X99134437Y-109724000D02*
X99270000Y-109724000D01*
X99134437Y-109724000D02*
X98070000Y-108659563D01*
X101525563Y-109724000D02*
X102590000Y-108659563D01*
X98770000Y-110464000D02*
X98770000Y-109964000D01*
X98520000Y-110214000D02*
X99020000Y-110214000D01*
X35699000Y-61110000D02*
X31579000Y-61110000D01*
X35699000Y-103170000D02*
X35699000Y-61110000D01*
X31579000Y-105230000D02*
X31579000Y-61110000D01*
X35699000Y-103170000D02*
X33639000Y-103170000D01*
X33639000Y-103170000D02*
X33639000Y-105230000D01*
X33639000Y-105230000D02*
X31579000Y-105230000D01*
X35699000Y-104170000D02*
X35699000Y-105230000D01*
X35699000Y-105230000D02*
X34639000Y-105230000D01*
D11*
X8509000Y-15621000D02*
X8509000Y-22987000D01*
X8509000Y-22987000D02*
X124079000Y-22987000D01*
X124079000Y-22987000D02*
X124079000Y-15621000D01*
X124079000Y-15621000D02*
X8509000Y-15621000D01*
X10414000Y-22987000D02*
X9779000Y-23622000D01*
X9779000Y-23622000D02*
X9779000Y-22987000D01*
X122174000Y-22987000D02*
X122809000Y-23622000D01*
X122809000Y-23622000D02*
X122809000Y-22987000D01*
D10*
X108010000Y-57150000D02*
X105350000Y-57150000D01*
X108010000Y-57150000D02*
X108010000Y-44390000D01*
X108010000Y-44390000D02*
X105350000Y-44390000D01*
X105350000Y-57150000D02*
X105350000Y-44390000D01*
X105350000Y-59750000D02*
X105350000Y-58420000D01*
X106680000Y-59750000D02*
X105350000Y-59750000D01*
X125279000Y-84966500D02*
X116649000Y-84966500D01*
X125279000Y-84848405D02*
X116649000Y-84848405D01*
X125279000Y-84730310D02*
X116649000Y-84730310D01*
X125279000Y-84612215D02*
X116649000Y-84612215D01*
X125279000Y-84494120D02*
X116649000Y-84494120D01*
X125279000Y-84376025D02*
X116649000Y-84376025D01*
X125279000Y-84257930D02*
X116649000Y-84257930D01*
X125279000Y-84139835D02*
X116649000Y-84139835D01*
X125279000Y-84021740D02*
X116649000Y-84021740D01*
X125279000Y-83903645D02*
X116649000Y-83903645D01*
X125279000Y-83785550D02*
X116649000Y-83785550D01*
X125279000Y-83667455D02*
X116649000Y-83667455D01*
X125279000Y-83549360D02*
X116649000Y-83549360D01*
X125279000Y-83431265D02*
X116649000Y-83431265D01*
X125279000Y-83313170D02*
X116649000Y-83313170D01*
X125279000Y-83195075D02*
X116649000Y-83195075D01*
X125279000Y-83076980D02*
X116649000Y-83076980D01*
X125279000Y-82958885D02*
X116649000Y-82958885D01*
X125279000Y-82840790D02*
X116649000Y-82840790D01*
X125279000Y-82722695D02*
X116649000Y-82722695D01*
X125279000Y-82604600D02*
X116649000Y-82604600D01*
X116649000Y-84116500D02*
X116299000Y-84116500D01*
X116649000Y-83396500D02*
X116299000Y-83396500D01*
X116649000Y-81576500D02*
X116239000Y-81576500D01*
X116649000Y-80856500D02*
X116239000Y-80856500D01*
X116649000Y-79036500D02*
X116239000Y-79036500D01*
X116649000Y-78316500D02*
X116239000Y-78316500D01*
X116649000Y-76496500D02*
X116239000Y-76496500D01*
X116649000Y-75776500D02*
X116239000Y-75776500D01*
X116649000Y-73956500D02*
X116239000Y-73956500D01*
X116649000Y-73236500D02*
X116239000Y-73236500D01*
X116649000Y-71416500D02*
X116239000Y-71416500D01*
X116649000Y-70696500D02*
X116239000Y-70696500D01*
X125279000Y-82486500D02*
X116649000Y-82486500D01*
X125279000Y-79946500D02*
X116649000Y-79946500D01*
X125279000Y-77406500D02*
X116649000Y-77406500D01*
X125279000Y-74866500D02*
X116649000Y-74866500D01*
X125279000Y-72326500D02*
X116649000Y-72326500D01*
X125279000Y-85086500D02*
X116649000Y-85086500D01*
X116649000Y-85086500D02*
X116649000Y-69726500D01*
X125279000Y-69726500D02*
X116649000Y-69726500D01*
X125279000Y-85086500D02*
X125279000Y-69726500D01*
X114079000Y-85086500D02*
X114079000Y-83756500D01*
X115189000Y-85086500D02*
X114079000Y-85086500D01*
X16069000Y-38604500D02*
X21269000Y-38604500D01*
X16069000Y-28384500D02*
X16069000Y-38604500D01*
X21269000Y-25784500D02*
X21269000Y-38604500D01*
X16069000Y-28384500D02*
X18669000Y-28384500D01*
X18669000Y-28384500D02*
X18669000Y-25784500D01*
X18669000Y-25784500D02*
X21269000Y-25784500D01*
X16069000Y-27114500D02*
X16069000Y-25784500D01*
X16069000Y-25784500D02*
X17399000Y-25784500D01*
X105580000Y-109414000D02*
X105580000Y-110464000D01*
X106630000Y-110464000D02*
X105580000Y-110464000D01*
X111680000Y-101064000D02*
X120480000Y-101064000D01*
X120480000Y-101064000D02*
X120480000Y-110264000D01*
X105780000Y-103764000D02*
X105780000Y-101064000D01*
X105780000Y-101064000D02*
X107680000Y-101064000D01*
X120480000Y-110264000D02*
X105780000Y-110264000D01*
X105780000Y-110264000D02*
X105780000Y-107664000D01*
X114300000Y-113224000D02*
X114300000Y-115884000D01*
X114300000Y-113224000D02*
X15180000Y-113224000D01*
X15180000Y-113224000D02*
X15180000Y-115884000D01*
X114300000Y-115884000D02*
X15180000Y-115884000D01*
X116900000Y-115884000D02*
X115570000Y-115884000D01*
X116900000Y-114554000D02*
X116900000Y-115884000D01*
X94495252Y-55955000D02*
X93972748Y-55955000D01*
X94495252Y-54535000D02*
X93972748Y-54535000D01*
X94431752Y-40819000D02*
X93909248Y-40819000D01*
X94431752Y-42239000D02*
X93909248Y-42239000D01*
X47109748Y-49795500D02*
X47632252Y-49795500D01*
X47109748Y-48375500D02*
X47632252Y-48375500D01*
X94495252Y-60019000D02*
X93972748Y-60019000D01*
X94495252Y-58599000D02*
X93972748Y-58599000D01*
X110374000Y-75866248D02*
X110374000Y-76388752D01*
X108954000Y-75866248D02*
X108954000Y-76388752D01*
X23184752Y-45287000D02*
X22662248Y-45287000D01*
X23184752Y-43867000D02*
X22662248Y-43867000D01*
X47641252Y-41667500D02*
X47118748Y-41667500D01*
X47641252Y-40247500D02*
X47118748Y-40247500D01*
X47641252Y-44375000D02*
X47118748Y-44375000D01*
X47641252Y-45795000D02*
X47118748Y-45795000D01*
X38355748Y-101525000D02*
X38878252Y-101525000D01*
X38355748Y-102945000D02*
X38878252Y-102945000D01*
X38355748Y-100913000D02*
X38878252Y-100913000D01*
X38355748Y-99493000D02*
X38878252Y-99493000D01*
X38337748Y-97461000D02*
X38860252Y-97461000D01*
X38337748Y-98881000D02*
X38860252Y-98881000D01*
X38355748Y-96879500D02*
X38878252Y-96879500D01*
X38355748Y-95459500D02*
X38878252Y-95459500D01*
X38355748Y-94880500D02*
X38878252Y-94880500D01*
X38355748Y-93460500D02*
X38878252Y-93460500D01*
X38346748Y-91428500D02*
X38869252Y-91428500D01*
X38346748Y-92848500D02*
X38869252Y-92848500D01*
X38355748Y-90816500D02*
X38878252Y-90816500D01*
X38355748Y-89396500D02*
X38878252Y-89396500D01*
X38355748Y-87364500D02*
X38878252Y-87364500D01*
X38355748Y-88784500D02*
X38878252Y-88784500D01*
X23184752Y-49859000D02*
X22662248Y-49859000D01*
X23184752Y-48439000D02*
X22662248Y-48439000D01*
X38878252Y-79465100D02*
X38355748Y-79465100D01*
X38878252Y-80885100D02*
X38355748Y-80885100D01*
X94495252Y-56567000D02*
X93972748Y-56567000D01*
X94495252Y-57987000D02*
X93972748Y-57987000D01*
X47632252Y-43763000D02*
X47109748Y-43763000D01*
X47632252Y-42343000D02*
X47109748Y-42343000D01*
X17220000Y-110228748D02*
X17220000Y-110751252D01*
X15800000Y-110228748D02*
X15800000Y-110751252D01*
X18340000Y-110219748D02*
X18340000Y-110742252D01*
X19760000Y-110219748D02*
X19760000Y-110742252D01*
X65480000Y-110742252D02*
X65480000Y-110219748D01*
X64060000Y-110742252D02*
X64060000Y-110219748D01*
X107212000Y-89709500D02*
X107212000Y-94209500D01*
X111212000Y-88459500D02*
X109712000Y-88459500D01*
X113712000Y-94209500D02*
X113712000Y-89709500D01*
X109712000Y-95459500D02*
X111212000Y-95459500D01*
X45527000Y-31305500D02*
G75*
G03X45527000Y-31305500I-950000J0D01*
G01*
X69466500Y-110300000D02*
G75*
G03X69466500Y-110300000I-950000J0D01*
G01*
X93087500Y-98282000D02*
G75*
G02X93087500Y-96282000I0J1000000D01*
G01*
X93087500Y-96282000D02*
X93087500Y-90822000D01*
X93087500Y-90822000D02*
X52327500Y-90822000D01*
X52327500Y-90822000D02*
X52327500Y-103742000D01*
X52327500Y-103742000D02*
X93087500Y-103742000D01*
X93087500Y-103742000D02*
X93087500Y-98282000D01*
X93147500Y-88332000D02*
X52267500Y-88332000D01*
X52267500Y-88332000D02*
X52267500Y-106232000D01*
X52267500Y-106232000D02*
X93147500Y-106232000D01*
X93147500Y-106232000D02*
X93147500Y-88332000D01*
X100453500Y-78724000D02*
G75*
G02X100453500Y-76724000I0J1000000D01*
G01*
X100453500Y-76724000D02*
X100453500Y-71264000D01*
X100453500Y-71264000D02*
X49533500Y-71264000D01*
X49533500Y-71264000D02*
X49533500Y-84184000D01*
X49533500Y-84184000D02*
X100453500Y-84184000D01*
X100453500Y-84184000D02*
X100453500Y-78724000D01*
X100513500Y-68774000D02*
X49473500Y-68774000D01*
X49473500Y-68774000D02*
X49473500Y-86674000D01*
X49473500Y-86674000D02*
X100513500Y-86674000D01*
X100513500Y-86674000D02*
X100513500Y-68774000D01*
X103908000Y-93336500D02*
X100308000Y-93336500D01*
X103946478Y-93348022D02*
G75*
G02X102108000Y-97786500I-1838478J-1838478D01*
G01*
X100269522Y-93348022D02*
G75*
G03X102108000Y-97786500I1838478J-1838478D01*
G01*
X100142500Y-48122000D02*
X99902500Y-48122000D01*
X99902500Y-48122000D02*
X99902500Y-49922000D01*
X92502500Y-49922000D02*
X92502500Y-48122000D01*
X97642500Y-51722000D02*
X94762500Y-51722000D01*
X94762500Y-46322000D02*
X97642500Y-46322000D01*
X97642500Y-46322000D02*
X97642500Y-44722000D01*
X108528000Y-81692500D02*
X108528000Y-65717500D01*
X108528000Y-65717500D02*
X103428000Y-65717500D01*
X103428000Y-65717500D02*
X103428000Y-81692500D01*
D11*
X34544095Y-30063380D02*
X34544095Y-30872904D01*
X34591714Y-30968142D01*
X34639333Y-31015761D01*
X34734571Y-31063380D01*
X34925047Y-31063380D01*
X35020285Y-31015761D01*
X35067904Y-30968142D01*
X35115523Y-30872904D01*
X35115523Y-30063380D01*
X35496476Y-30063380D02*
X36115523Y-30063380D01*
X35782190Y-30444333D01*
X35925047Y-30444333D01*
X36020285Y-30491952D01*
X36067904Y-30539571D01*
X36115523Y-30634809D01*
X36115523Y-30872904D01*
X36067904Y-30968142D01*
X36020285Y-31015761D01*
X35925047Y-31063380D01*
X35639333Y-31063380D01*
X35544095Y-31015761D01*
X35496476Y-30968142D01*
X18716666Y-78402380D02*
X18716666Y-79116666D01*
X18669047Y-79259523D01*
X18573809Y-79354761D01*
X18430952Y-79402380D01*
X18335714Y-79402380D01*
X19621428Y-78402380D02*
X19430952Y-78402380D01*
X19335714Y-78450000D01*
X19288095Y-78497619D01*
X19192857Y-78640476D01*
X19145238Y-78830952D01*
X19145238Y-79211904D01*
X19192857Y-79307142D01*
X19240476Y-79354761D01*
X19335714Y-79402380D01*
X19526190Y-79402380D01*
X19621428Y-79354761D01*
X19669047Y-79307142D01*
X19716666Y-79211904D01*
X19716666Y-78973809D01*
X19669047Y-78878571D01*
X19621428Y-78830952D01*
X19526190Y-78783333D01*
X19335714Y-78783333D01*
X19240476Y-78830952D01*
X19192857Y-78878571D01*
X19145238Y-78973809D01*
X108882380Y-58753333D02*
X109596666Y-58753333D01*
X109739523Y-58800952D01*
X109834761Y-58896190D01*
X109882380Y-59039047D01*
X109882380Y-59134285D01*
X108882380Y-57800952D02*
X108882380Y-58277142D01*
X109358571Y-58324761D01*
X109310952Y-58277142D01*
X109263333Y-58181904D01*
X109263333Y-57943809D01*
X109310952Y-57848571D01*
X109358571Y-57800952D01*
X109453809Y-57753333D01*
X109691904Y-57753333D01*
X109787142Y-57800952D01*
X109834761Y-57848571D01*
X109882380Y-57943809D01*
X109882380Y-58181904D01*
X109834761Y-58277142D01*
X109787142Y-58324761D01*
X71628095Y-66317880D02*
X71628095Y-67127404D01*
X71675714Y-67222642D01*
X71723333Y-67270261D01*
X71818571Y-67317880D01*
X72009047Y-67317880D01*
X72104285Y-67270261D01*
X72151904Y-67222642D01*
X72199523Y-67127404D01*
X72199523Y-66317880D01*
X73199523Y-67317880D02*
X72628095Y-67317880D01*
X72913809Y-67317880D02*
X72913809Y-66317880D01*
X72818571Y-66460738D01*
X72723333Y-66555976D01*
X72628095Y-66603595D01*
X56959523Y-65277880D02*
X56388095Y-65277880D01*
X56673809Y-65277880D02*
X56673809Y-64277880D01*
X56578571Y-64420738D01*
X56483333Y-64515976D01*
X56388095Y-64563595D01*
X57292857Y-64277880D02*
X57911904Y-64277880D01*
X57578571Y-64658833D01*
X57721428Y-64658833D01*
X57816666Y-64706452D01*
X57864285Y-64754071D01*
X57911904Y-64849309D01*
X57911904Y-65087404D01*
X57864285Y-65182642D01*
X57816666Y-65230261D01*
X57721428Y-65277880D01*
X57435714Y-65277880D01*
X57340476Y-65230261D01*
X57292857Y-65182642D01*
X59499523Y-65277880D02*
X58928095Y-65277880D01*
X59213809Y-65277880D02*
X59213809Y-64277880D01*
X59118571Y-64420738D01*
X59023333Y-64515976D01*
X58928095Y-64563595D01*
X59880476Y-64373119D02*
X59928095Y-64325500D01*
X60023333Y-64277880D01*
X60261428Y-64277880D01*
X60356666Y-64325500D01*
X60404285Y-64373119D01*
X60451904Y-64468357D01*
X60451904Y-64563595D01*
X60404285Y-64706452D01*
X59832857Y-65277880D01*
X60451904Y-65277880D01*
X62039523Y-65277880D02*
X61468095Y-65277880D01*
X61753809Y-65277880D02*
X61753809Y-64277880D01*
X61658571Y-64420738D01*
X61563333Y-64515976D01*
X61468095Y-64563595D01*
X62991904Y-65277880D02*
X62420476Y-65277880D01*
X62706190Y-65277880D02*
X62706190Y-64277880D01*
X62610952Y-64420738D01*
X62515714Y-64515976D01*
X62420476Y-64563595D01*
X64579523Y-65277880D02*
X64008095Y-65277880D01*
X64293809Y-65277880D02*
X64293809Y-64277880D01*
X64198571Y-64420738D01*
X64103333Y-64515976D01*
X64008095Y-64563595D01*
X65198571Y-64277880D02*
X65293809Y-64277880D01*
X65389047Y-64325500D01*
X65436666Y-64373119D01*
X65484285Y-64468357D01*
X65531904Y-64658833D01*
X65531904Y-64896928D01*
X65484285Y-65087404D01*
X65436666Y-65182642D01*
X65389047Y-65230261D01*
X65293809Y-65277880D01*
X65198571Y-65277880D01*
X65103333Y-65230261D01*
X65055714Y-65182642D01*
X65008095Y-65087404D01*
X64960476Y-64896928D01*
X64960476Y-64658833D01*
X65008095Y-64468357D01*
X65055714Y-64373119D01*
X65103333Y-64325500D01*
X65198571Y-64277880D01*
X67119523Y-65277880D02*
X67310000Y-65277880D01*
X67405238Y-65230261D01*
X67452857Y-65182642D01*
X67548095Y-65039785D01*
X67595714Y-64849309D01*
X67595714Y-64468357D01*
X67548095Y-64373119D01*
X67500476Y-64325500D01*
X67405238Y-64277880D01*
X67214761Y-64277880D01*
X67119523Y-64325500D01*
X67071904Y-64373119D01*
X67024285Y-64468357D01*
X67024285Y-64706452D01*
X67071904Y-64801690D01*
X67119523Y-64849309D01*
X67214761Y-64896928D01*
X67405238Y-64896928D01*
X67500476Y-64849309D01*
X67548095Y-64801690D01*
X67595714Y-64706452D01*
X69754761Y-64706452D02*
X69659523Y-64658833D01*
X69611904Y-64611214D01*
X69564285Y-64515976D01*
X69564285Y-64468357D01*
X69611904Y-64373119D01*
X69659523Y-64325500D01*
X69754761Y-64277880D01*
X69945238Y-64277880D01*
X70040476Y-64325500D01*
X70088095Y-64373119D01*
X70135714Y-64468357D01*
X70135714Y-64515976D01*
X70088095Y-64611214D01*
X70040476Y-64658833D01*
X69945238Y-64706452D01*
X69754761Y-64706452D01*
X69659523Y-64754071D01*
X69611904Y-64801690D01*
X69564285Y-64896928D01*
X69564285Y-65087404D01*
X69611904Y-65182642D01*
X69659523Y-65230261D01*
X69754761Y-65277880D01*
X69945238Y-65277880D01*
X70040476Y-65230261D01*
X70088095Y-65182642D01*
X70135714Y-65087404D01*
X70135714Y-64896928D01*
X70088095Y-64801690D01*
X70040476Y-64754071D01*
X69945238Y-64706452D01*
X72056666Y-64277880D02*
X72723333Y-64277880D01*
X72294761Y-65277880D01*
X75120476Y-64277880D02*
X74930000Y-64277880D01*
X74834761Y-64325500D01*
X74787142Y-64373119D01*
X74691904Y-64515976D01*
X74644285Y-64706452D01*
X74644285Y-65087404D01*
X74691904Y-65182642D01*
X74739523Y-65230261D01*
X74834761Y-65277880D01*
X75025238Y-65277880D01*
X75120476Y-65230261D01*
X75168095Y-65182642D01*
X75215714Y-65087404D01*
X75215714Y-64849309D01*
X75168095Y-64754071D01*
X75120476Y-64706452D01*
X75025238Y-64658833D01*
X74834761Y-64658833D01*
X74739523Y-64706452D01*
X74691904Y-64754071D01*
X74644285Y-64849309D01*
X77708095Y-64277880D02*
X77231904Y-64277880D01*
X77184285Y-64754071D01*
X77231904Y-64706452D01*
X77327142Y-64658833D01*
X77565238Y-64658833D01*
X77660476Y-64706452D01*
X77708095Y-64754071D01*
X77755714Y-64849309D01*
X77755714Y-65087404D01*
X77708095Y-65182642D01*
X77660476Y-65230261D01*
X77565238Y-65277880D01*
X77327142Y-65277880D01*
X77231904Y-65230261D01*
X77184285Y-65182642D01*
X80200476Y-64611214D02*
X80200476Y-65277880D01*
X79962380Y-64230261D02*
X79724285Y-64944547D01*
X80343333Y-64944547D01*
X82216666Y-64277880D02*
X82835714Y-64277880D01*
X82502380Y-64658833D01*
X82645238Y-64658833D01*
X82740476Y-64706452D01*
X82788095Y-64754071D01*
X82835714Y-64849309D01*
X82835714Y-65087404D01*
X82788095Y-65182642D01*
X82740476Y-65230261D01*
X82645238Y-65277880D01*
X82359523Y-65277880D01*
X82264285Y-65230261D01*
X82216666Y-65182642D01*
X84804285Y-64373119D02*
X84851904Y-64325500D01*
X84947142Y-64277880D01*
X85185238Y-64277880D01*
X85280476Y-64325500D01*
X85328095Y-64373119D01*
X85375714Y-64468357D01*
X85375714Y-64563595D01*
X85328095Y-64706452D01*
X84756666Y-65277880D01*
X85375714Y-65277880D01*
X87915714Y-65277880D02*
X87344285Y-65277880D01*
X87630000Y-65277880D02*
X87630000Y-64277880D01*
X87534761Y-64420738D01*
X87439523Y-64515976D01*
X87344285Y-64563595D01*
X90134285Y-31757880D02*
X90134285Y-30757880D01*
X90705714Y-31757880D01*
X90705714Y-30757880D01*
X90086666Y-34297880D02*
X90086666Y-33297880D01*
X90420000Y-34012166D01*
X90753333Y-33297880D01*
X90753333Y-34297880D01*
X90729523Y-36837880D02*
X90253333Y-36837880D01*
X90253333Y-35837880D01*
X90158095Y-39377880D02*
X90158095Y-38377880D01*
X90729523Y-39377880D02*
X90300952Y-38806452D01*
X90729523Y-38377880D02*
X90158095Y-38949309D01*
X90562857Y-40917880D02*
X90562857Y-41632166D01*
X90515238Y-41775023D01*
X90420000Y-41870261D01*
X90277142Y-41917880D01*
X90181904Y-41917880D01*
X90134285Y-44457880D02*
X90134285Y-43457880D01*
X90134285Y-43934071D02*
X90705714Y-43934071D01*
X90705714Y-44457880D02*
X90705714Y-43457880D01*
X90681904Y-46045500D02*
X90586666Y-45997880D01*
X90443809Y-45997880D01*
X90300952Y-46045500D01*
X90205714Y-46140738D01*
X90158095Y-46235976D01*
X90110476Y-46426452D01*
X90110476Y-46569309D01*
X90158095Y-46759785D01*
X90205714Y-46855023D01*
X90300952Y-46950261D01*
X90443809Y-46997880D01*
X90539047Y-46997880D01*
X90681904Y-46950261D01*
X90729523Y-46902642D01*
X90729523Y-46569309D01*
X90539047Y-46569309D01*
X90562857Y-49014071D02*
X90229523Y-49014071D01*
X90229523Y-49537880D02*
X90229523Y-48537880D01*
X90705714Y-48537880D01*
X90205714Y-51554071D02*
X90539047Y-51554071D01*
X90681904Y-52077880D02*
X90205714Y-52077880D01*
X90205714Y-51077880D01*
X90681904Y-51077880D01*
X90158095Y-54617880D02*
X90158095Y-53617880D01*
X90396190Y-53617880D01*
X90539047Y-53665500D01*
X90634285Y-53760738D01*
X90681904Y-53855976D01*
X90729523Y-54046452D01*
X90729523Y-54189309D01*
X90681904Y-54379785D01*
X90634285Y-54475023D01*
X90539047Y-54570261D01*
X90396190Y-54617880D01*
X90158095Y-54617880D01*
X90729523Y-57062642D02*
X90681904Y-57110261D01*
X90539047Y-57157880D01*
X90443809Y-57157880D01*
X90300952Y-57110261D01*
X90205714Y-57015023D01*
X90158095Y-56919785D01*
X90110476Y-56729309D01*
X90110476Y-56586452D01*
X90158095Y-56395976D01*
X90205714Y-56300738D01*
X90300952Y-56205500D01*
X90443809Y-56157880D01*
X90539047Y-56157880D01*
X90681904Y-56205500D01*
X90729523Y-56253119D01*
X90491428Y-59174071D02*
X90634285Y-59221690D01*
X90681904Y-59269309D01*
X90729523Y-59364547D01*
X90729523Y-59507404D01*
X90681904Y-59602642D01*
X90634285Y-59650261D01*
X90539047Y-59697880D01*
X90158095Y-59697880D01*
X90158095Y-58697880D01*
X90491428Y-58697880D01*
X90586666Y-58745500D01*
X90634285Y-58793119D01*
X90681904Y-58888357D01*
X90681904Y-58983595D01*
X90634285Y-59078833D01*
X90586666Y-59126452D01*
X90491428Y-59174071D01*
X90158095Y-59174071D01*
X90181904Y-61952166D02*
X90658095Y-61952166D01*
X90086666Y-62237880D02*
X90420000Y-61237880D01*
X90753333Y-62237880D01*
X110387333Y-80431642D02*
X110339714Y-80479261D01*
X110196857Y-80526880D01*
X110101619Y-80526880D01*
X109958761Y-80479261D01*
X109863523Y-80384023D01*
X109815904Y-80288785D01*
X109768285Y-80098309D01*
X109768285Y-79955452D01*
X109815904Y-79764976D01*
X109863523Y-79669738D01*
X109958761Y-79574500D01*
X110101619Y-79526880D01*
X110196857Y-79526880D01*
X110339714Y-79574500D01*
X110387333Y-79622119D01*
X111339714Y-80526880D02*
X110768285Y-80526880D01*
X111054000Y-80526880D02*
X111054000Y-79526880D01*
X110958761Y-79669738D01*
X110863523Y-79764976D01*
X110768285Y-79812595D01*
X110387333Y-68557142D02*
X110339714Y-68604761D01*
X110196857Y-68652380D01*
X110101619Y-68652380D01*
X109958761Y-68604761D01*
X109863523Y-68509523D01*
X109815904Y-68414285D01*
X109768285Y-68223809D01*
X109768285Y-68080952D01*
X109815904Y-67890476D01*
X109863523Y-67795238D01*
X109958761Y-67700000D01*
X110101619Y-67652380D01*
X110196857Y-67652380D01*
X110339714Y-67700000D01*
X110387333Y-67747619D01*
X110768285Y-67747619D02*
X110815904Y-67700000D01*
X110911142Y-67652380D01*
X111149238Y-67652380D01*
X111244476Y-67700000D01*
X111292095Y-67747619D01*
X111339714Y-67842857D01*
X111339714Y-67938095D01*
X111292095Y-68080952D01*
X110720666Y-68652380D01*
X111339714Y-68652380D01*
X38441333Y-76748642D02*
X38393714Y-76796261D01*
X38250857Y-76843880D01*
X38155619Y-76843880D01*
X38012761Y-76796261D01*
X37917523Y-76701023D01*
X37869904Y-76605785D01*
X37822285Y-76415309D01*
X37822285Y-76272452D01*
X37869904Y-76081976D01*
X37917523Y-75986738D01*
X38012761Y-75891500D01*
X38155619Y-75843880D01*
X38250857Y-75843880D01*
X38393714Y-75891500D01*
X38441333Y-75939119D01*
X38774666Y-75843880D02*
X39393714Y-75843880D01*
X39060380Y-76224833D01*
X39203238Y-76224833D01*
X39298476Y-76272452D01*
X39346095Y-76320071D01*
X39393714Y-76415309D01*
X39393714Y-76653404D01*
X39346095Y-76748642D01*
X39298476Y-76796261D01*
X39203238Y-76843880D01*
X38917523Y-76843880D01*
X38822285Y-76796261D01*
X38774666Y-76748642D01*
X101719142Y-100053142D02*
X101671523Y-100100761D01*
X101528666Y-100148380D01*
X101433428Y-100148380D01*
X101290571Y-100100761D01*
X101195333Y-100005523D01*
X101147714Y-99910285D01*
X101100095Y-99719809D01*
X101100095Y-99576952D01*
X101147714Y-99386476D01*
X101195333Y-99291238D01*
X101290571Y-99196000D01*
X101433428Y-99148380D01*
X101528666Y-99148380D01*
X101671523Y-99196000D01*
X101719142Y-99243619D01*
X102100095Y-99243619D02*
X102147714Y-99196000D01*
X102242952Y-99148380D01*
X102481047Y-99148380D01*
X102576285Y-99196000D01*
X102623904Y-99243619D01*
X102671523Y-99338857D01*
X102671523Y-99434095D01*
X102623904Y-99576952D01*
X102052476Y-100148380D01*
X102671523Y-100148380D01*
X103004857Y-99148380D02*
X103671523Y-99148380D01*
X103242952Y-100148380D01*
X97487142Y-108106857D02*
X97534761Y-108154476D01*
X97582380Y-108297333D01*
X97582380Y-108392571D01*
X97534761Y-108535428D01*
X97439523Y-108630666D01*
X97344285Y-108678285D01*
X97153809Y-108725904D01*
X97010952Y-108725904D01*
X96820476Y-108678285D01*
X96725238Y-108630666D01*
X96630000Y-108535428D01*
X96582380Y-108392571D01*
X96582380Y-108297333D01*
X96630000Y-108154476D01*
X96677619Y-108106857D01*
X96677619Y-107725904D02*
X96630000Y-107678285D01*
X96582380Y-107583047D01*
X96582380Y-107344952D01*
X96630000Y-107249714D01*
X96677619Y-107202095D01*
X96772857Y-107154476D01*
X96868095Y-107154476D01*
X97010952Y-107202095D01*
X97582380Y-107773523D01*
X97582380Y-107154476D01*
X97010952Y-106583047D02*
X96963333Y-106678285D01*
X96915714Y-106725904D01*
X96820476Y-106773523D01*
X96772857Y-106773523D01*
X96677619Y-106725904D01*
X96630000Y-106678285D01*
X96582380Y-106583047D01*
X96582380Y-106392571D01*
X96630000Y-106297333D01*
X96677619Y-106249714D01*
X96772857Y-106202095D01*
X96820476Y-106202095D01*
X96915714Y-106249714D01*
X96963333Y-106297333D01*
X97010952Y-106392571D01*
X97010952Y-106583047D01*
X97058571Y-106678285D01*
X97106190Y-106725904D01*
X97201428Y-106773523D01*
X97391904Y-106773523D01*
X97487142Y-106725904D01*
X97534761Y-106678285D01*
X97582380Y-106583047D01*
X97582380Y-106392571D01*
X97534761Y-106297333D01*
X97487142Y-106249714D01*
X97391904Y-106202095D01*
X97201428Y-106202095D01*
X97106190Y-106249714D01*
X97058571Y-106297333D01*
X97010952Y-106392571D01*
X32948523Y-106587142D02*
X32900904Y-106634761D01*
X32758047Y-106682380D01*
X32662809Y-106682380D01*
X32519952Y-106634761D01*
X32424714Y-106539523D01*
X32377095Y-106444285D01*
X32329476Y-106253809D01*
X32329476Y-106110952D01*
X32377095Y-105920476D01*
X32424714Y-105825238D01*
X32519952Y-105730000D01*
X32662809Y-105682380D01*
X32758047Y-105682380D01*
X32900904Y-105730000D01*
X32948523Y-105777619D01*
X33377095Y-106682380D02*
X33377095Y-105682380D01*
X33948523Y-106682380D01*
X33948523Y-105682380D01*
X34948523Y-106682380D02*
X34377095Y-106682380D01*
X34662809Y-106682380D02*
X34662809Y-105682380D01*
X34567571Y-105825238D01*
X34472333Y-105920476D01*
X34377095Y-105968095D01*
X65603523Y-24360142D02*
X65555904Y-24407761D01*
X65413047Y-24455380D01*
X65317809Y-24455380D01*
X65174952Y-24407761D01*
X65079714Y-24312523D01*
X65032095Y-24217285D01*
X64984476Y-24026809D01*
X64984476Y-23883952D01*
X65032095Y-23693476D01*
X65079714Y-23598238D01*
X65174952Y-23503000D01*
X65317809Y-23455380D01*
X65413047Y-23455380D01*
X65555904Y-23503000D01*
X65603523Y-23550619D01*
X66032095Y-24455380D02*
X66032095Y-23455380D01*
X66603523Y-24455380D01*
X66603523Y-23455380D01*
X67032095Y-23550619D02*
X67079714Y-23503000D01*
X67174952Y-23455380D01*
X67413047Y-23455380D01*
X67508285Y-23503000D01*
X67555904Y-23550619D01*
X67603523Y-23645857D01*
X67603523Y-23741095D01*
X67555904Y-23883952D01*
X66984476Y-24455380D01*
X67603523Y-24455380D01*
X17684714Y-18486380D02*
X17113285Y-18486380D01*
X17399000Y-18486380D02*
X17399000Y-17486380D01*
X17303761Y-17629238D01*
X17208523Y-17724476D01*
X17113285Y-17772095D01*
X106346666Y-60642380D02*
X106346666Y-61356666D01*
X106299047Y-61499523D01*
X106203809Y-61594761D01*
X106060952Y-61642380D01*
X105965714Y-61642380D01*
X107346666Y-61642380D02*
X106775238Y-61642380D01*
X107060952Y-61642380D02*
X107060952Y-60642380D01*
X106965714Y-60785238D01*
X106870476Y-60880476D01*
X106775238Y-60928095D01*
X119235666Y-85978880D02*
X119235666Y-86693166D01*
X119188047Y-86836023D01*
X119092809Y-86931261D01*
X118949952Y-86978880D01*
X118854714Y-86978880D01*
X119664238Y-86074119D02*
X119711857Y-86026500D01*
X119807095Y-85978880D01*
X120045190Y-85978880D01*
X120140428Y-86026500D01*
X120188047Y-86074119D01*
X120235666Y-86169357D01*
X120235666Y-86264595D01*
X120188047Y-86407452D01*
X119616619Y-86978880D01*
X120235666Y-86978880D01*
X18335666Y-24236880D02*
X18335666Y-24951166D01*
X18288047Y-25094023D01*
X18192809Y-25189261D01*
X18049952Y-25236880D01*
X17954714Y-25236880D01*
X18716619Y-24236880D02*
X19335666Y-24236880D01*
X19002333Y-24617833D01*
X19145190Y-24617833D01*
X19240428Y-24665452D01*
X19288047Y-24713071D01*
X19335666Y-24808309D01*
X19335666Y-25046404D01*
X19288047Y-25141642D01*
X19240428Y-25189261D01*
X19145190Y-25236880D01*
X18859476Y-25236880D01*
X18764238Y-25189261D01*
X18716619Y-25141642D01*
X114796666Y-99366380D02*
X114796666Y-100080666D01*
X114749047Y-100223523D01*
X114653809Y-100318761D01*
X114510952Y-100366380D01*
X114415714Y-100366380D01*
X115701428Y-99699714D02*
X115701428Y-100366380D01*
X115463333Y-99318761D02*
X115225238Y-100033047D01*
X115844285Y-100033047D01*
X118792380Y-115292095D02*
X117792380Y-115292095D01*
X117792380Y-114911142D01*
X117840000Y-114815904D01*
X117887619Y-114768285D01*
X117982857Y-114720666D01*
X118125714Y-114720666D01*
X118220952Y-114768285D01*
X118268571Y-114815904D01*
X118316190Y-114911142D01*
X118316190Y-115292095D01*
X118792380Y-113768285D02*
X118792380Y-114339714D01*
X118792380Y-114054000D02*
X117792380Y-114054000D01*
X117935238Y-114149238D01*
X118030476Y-114244476D01*
X118078095Y-114339714D01*
X94067333Y-57347380D02*
X93734000Y-56871190D01*
X93495904Y-57347380D02*
X93495904Y-56347380D01*
X93876857Y-56347380D01*
X93972095Y-56395000D01*
X94019714Y-56442619D01*
X94067333Y-56537857D01*
X94067333Y-56680714D01*
X94019714Y-56775952D01*
X93972095Y-56823571D01*
X93876857Y-56871190D01*
X93495904Y-56871190D01*
X95019714Y-57347380D02*
X94448285Y-57347380D01*
X94734000Y-57347380D02*
X94734000Y-56347380D01*
X94638761Y-56490238D01*
X94543523Y-56585476D01*
X94448285Y-56633095D01*
X94003833Y-43631380D02*
X93670500Y-43155190D01*
X93432404Y-43631380D02*
X93432404Y-42631380D01*
X93813357Y-42631380D01*
X93908595Y-42679000D01*
X93956214Y-42726619D01*
X94003833Y-42821857D01*
X94003833Y-42964714D01*
X93956214Y-43059952D01*
X93908595Y-43107571D01*
X93813357Y-43155190D01*
X93432404Y-43155190D01*
X94384785Y-42726619D02*
X94432404Y-42679000D01*
X94527642Y-42631380D01*
X94765738Y-42631380D01*
X94860976Y-42679000D01*
X94908595Y-42726619D01*
X94956214Y-42821857D01*
X94956214Y-42917095D01*
X94908595Y-43059952D01*
X94337166Y-43631380D01*
X94956214Y-43631380D01*
X47204333Y-47887880D02*
X46871000Y-47411690D01*
X46632904Y-47887880D02*
X46632904Y-46887880D01*
X47013857Y-46887880D01*
X47109095Y-46935500D01*
X47156714Y-46983119D01*
X47204333Y-47078357D01*
X47204333Y-47221214D01*
X47156714Y-47316452D01*
X47109095Y-47364071D01*
X47013857Y-47411690D01*
X46632904Y-47411690D01*
X47537666Y-46887880D02*
X48156714Y-46887880D01*
X47823380Y-47268833D01*
X47966238Y-47268833D01*
X48061476Y-47316452D01*
X48109095Y-47364071D01*
X48156714Y-47459309D01*
X48156714Y-47697404D01*
X48109095Y-47792642D01*
X48061476Y-47840261D01*
X47966238Y-47887880D01*
X47680523Y-47887880D01*
X47585285Y-47840261D01*
X47537666Y-47792642D01*
X94067333Y-61411380D02*
X93734000Y-60935190D01*
X93495904Y-61411380D02*
X93495904Y-60411380D01*
X93876857Y-60411380D01*
X93972095Y-60459000D01*
X94019714Y-60506619D01*
X94067333Y-60601857D01*
X94067333Y-60744714D01*
X94019714Y-60839952D01*
X93972095Y-60887571D01*
X93876857Y-60935190D01*
X93495904Y-60935190D01*
X94924476Y-60744714D02*
X94924476Y-61411380D01*
X94686380Y-60363761D02*
X94448285Y-61078047D01*
X95067333Y-61078047D01*
X111766380Y-76294166D02*
X111290190Y-76627500D01*
X111766380Y-76865595D02*
X110766380Y-76865595D01*
X110766380Y-76484642D01*
X110814000Y-76389404D01*
X110861619Y-76341785D01*
X110956857Y-76294166D01*
X111099714Y-76294166D01*
X111194952Y-76341785D01*
X111242571Y-76389404D01*
X111290190Y-76484642D01*
X111290190Y-76865595D01*
X110766380Y-75389404D02*
X110766380Y-75865595D01*
X111242571Y-75913214D01*
X111194952Y-75865595D01*
X111147333Y-75770357D01*
X111147333Y-75532261D01*
X111194952Y-75437023D01*
X111242571Y-75389404D01*
X111337809Y-75341785D01*
X111575904Y-75341785D01*
X111671142Y-75389404D01*
X111718761Y-75437023D01*
X111766380Y-75532261D01*
X111766380Y-75770357D01*
X111718761Y-75865595D01*
X111671142Y-75913214D01*
X22756833Y-46679380D02*
X22423500Y-46203190D01*
X22185404Y-46679380D02*
X22185404Y-45679380D01*
X22566357Y-45679380D01*
X22661595Y-45727000D01*
X22709214Y-45774619D01*
X22756833Y-45869857D01*
X22756833Y-46012714D01*
X22709214Y-46107952D01*
X22661595Y-46155571D01*
X22566357Y-46203190D01*
X22185404Y-46203190D01*
X23613976Y-45679380D02*
X23423500Y-45679380D01*
X23328261Y-45727000D01*
X23280642Y-45774619D01*
X23185404Y-45917476D01*
X23137785Y-46107952D01*
X23137785Y-46488904D01*
X23185404Y-46584142D01*
X23233023Y-46631761D01*
X23328261Y-46679380D01*
X23518738Y-46679380D01*
X23613976Y-46631761D01*
X23661595Y-46584142D01*
X23709214Y-46488904D01*
X23709214Y-46250809D01*
X23661595Y-46155571D01*
X23613976Y-46107952D01*
X23518738Y-46060333D01*
X23328261Y-46060333D01*
X23233023Y-46107952D01*
X23185404Y-46155571D01*
X23137785Y-46250809D01*
X47213333Y-43059880D02*
X46880000Y-42583690D01*
X46641904Y-43059880D02*
X46641904Y-42059880D01*
X47022857Y-42059880D01*
X47118095Y-42107500D01*
X47165714Y-42155119D01*
X47213333Y-42250357D01*
X47213333Y-42393214D01*
X47165714Y-42488452D01*
X47118095Y-42536071D01*
X47022857Y-42583690D01*
X46641904Y-42583690D01*
X47546666Y-42059880D02*
X48213333Y-42059880D01*
X47784761Y-43059880D01*
X47213333Y-47187380D02*
X46880000Y-46711190D01*
X46641904Y-47187380D02*
X46641904Y-46187380D01*
X47022857Y-46187380D01*
X47118095Y-46235000D01*
X47165714Y-46282619D01*
X47213333Y-46377857D01*
X47213333Y-46520714D01*
X47165714Y-46615952D01*
X47118095Y-46663571D01*
X47022857Y-46711190D01*
X46641904Y-46711190D01*
X47784761Y-46615952D02*
X47689523Y-46568333D01*
X47641904Y-46520714D01*
X47594285Y-46425476D01*
X47594285Y-46377857D01*
X47641904Y-46282619D01*
X47689523Y-46235000D01*
X47784761Y-46187380D01*
X47975238Y-46187380D01*
X48070476Y-46235000D01*
X48118095Y-46282619D01*
X48165714Y-46377857D01*
X48165714Y-46425476D01*
X48118095Y-46520714D01*
X48070476Y-46568333D01*
X47975238Y-46615952D01*
X47784761Y-46615952D01*
X47689523Y-46663571D01*
X47641904Y-46711190D01*
X47594285Y-46806428D01*
X47594285Y-46996904D01*
X47641904Y-47092142D01*
X47689523Y-47139761D01*
X47784761Y-47187380D01*
X47975238Y-47187380D01*
X48070476Y-47139761D01*
X48118095Y-47092142D01*
X48165714Y-46996904D01*
X48165714Y-46806428D01*
X48118095Y-46711190D01*
X48070476Y-46663571D01*
X47975238Y-46615952D01*
X41267142Y-102687380D02*
X40933809Y-102211190D01*
X40695714Y-102687380D02*
X40695714Y-101687380D01*
X41076666Y-101687380D01*
X41171904Y-101735000D01*
X41219523Y-101782619D01*
X41267142Y-101877857D01*
X41267142Y-102020714D01*
X41219523Y-102115952D01*
X41171904Y-102163571D01*
X41076666Y-102211190D01*
X40695714Y-102211190D01*
X42219523Y-102687380D02*
X41648095Y-102687380D01*
X41933809Y-102687380D02*
X41933809Y-101687380D01*
X41838571Y-101830238D01*
X41743333Y-101925476D01*
X41648095Y-101973095D01*
X42552857Y-101687380D02*
X43219523Y-101687380D01*
X42790952Y-102687380D01*
X41203642Y-100528380D02*
X40870309Y-100052190D01*
X40632214Y-100528380D02*
X40632214Y-99528380D01*
X41013166Y-99528380D01*
X41108404Y-99576000D01*
X41156023Y-99623619D01*
X41203642Y-99718857D01*
X41203642Y-99861714D01*
X41156023Y-99956952D01*
X41108404Y-100004571D01*
X41013166Y-100052190D01*
X40632214Y-100052190D01*
X42156023Y-100528380D02*
X41584595Y-100528380D01*
X41870309Y-100528380D02*
X41870309Y-99528380D01*
X41775071Y-99671238D01*
X41679833Y-99766476D01*
X41584595Y-99814095D01*
X42727452Y-99956952D02*
X42632214Y-99909333D01*
X42584595Y-99861714D01*
X42536976Y-99766476D01*
X42536976Y-99718857D01*
X42584595Y-99623619D01*
X42632214Y-99576000D01*
X42727452Y-99528380D01*
X42917928Y-99528380D01*
X43013166Y-99576000D01*
X43060785Y-99623619D01*
X43108404Y-99718857D01*
X43108404Y-99766476D01*
X43060785Y-99861714D01*
X43013166Y-99909333D01*
X42917928Y-99956952D01*
X42727452Y-99956952D01*
X42632214Y-100004571D01*
X42584595Y-100052190D01*
X42536976Y-100147428D01*
X42536976Y-100337904D01*
X42584595Y-100433142D01*
X42632214Y-100480761D01*
X42727452Y-100528380D01*
X42917928Y-100528380D01*
X43013166Y-100480761D01*
X43060785Y-100433142D01*
X43108404Y-100337904D01*
X43108404Y-100147428D01*
X43060785Y-100052190D01*
X43013166Y-100004571D01*
X42917928Y-99956952D01*
X41203642Y-98623380D02*
X40870309Y-98147190D01*
X40632214Y-98623380D02*
X40632214Y-97623380D01*
X41013166Y-97623380D01*
X41108404Y-97671000D01*
X41156023Y-97718619D01*
X41203642Y-97813857D01*
X41203642Y-97956714D01*
X41156023Y-98051952D01*
X41108404Y-98099571D01*
X41013166Y-98147190D01*
X40632214Y-98147190D01*
X42156023Y-98623380D02*
X41584595Y-98623380D01*
X41870309Y-98623380D02*
X41870309Y-97623380D01*
X41775071Y-97766238D01*
X41679833Y-97861476D01*
X41584595Y-97909095D01*
X42632214Y-98623380D02*
X42822690Y-98623380D01*
X42917928Y-98575761D01*
X42965547Y-98528142D01*
X43060785Y-98385285D01*
X43108404Y-98194809D01*
X43108404Y-97813857D01*
X43060785Y-97718619D01*
X43013166Y-97671000D01*
X42917928Y-97623380D01*
X42727452Y-97623380D01*
X42632214Y-97671000D01*
X42584595Y-97718619D01*
X42536976Y-97813857D01*
X42536976Y-98051952D01*
X42584595Y-98147190D01*
X42632214Y-98194809D01*
X42727452Y-98242428D01*
X42917928Y-98242428D01*
X43013166Y-98194809D01*
X43060785Y-98147190D01*
X43108404Y-98051952D01*
X41203642Y-96616800D02*
X40870309Y-96140610D01*
X40632214Y-96616800D02*
X40632214Y-95616800D01*
X41013166Y-95616800D01*
X41108404Y-95664420D01*
X41156023Y-95712039D01*
X41203642Y-95807277D01*
X41203642Y-95950134D01*
X41156023Y-96045372D01*
X41108404Y-96092991D01*
X41013166Y-96140610D01*
X40632214Y-96140610D01*
X41584595Y-95712039D02*
X41632214Y-95664420D01*
X41727452Y-95616800D01*
X41965547Y-95616800D01*
X42060785Y-95664420D01*
X42108404Y-95712039D01*
X42156023Y-95807277D01*
X42156023Y-95902515D01*
X42108404Y-96045372D01*
X41536976Y-96616800D01*
X42156023Y-96616800D01*
X42775071Y-95616800D02*
X42870309Y-95616800D01*
X42965547Y-95664420D01*
X43013166Y-95712039D01*
X43060785Y-95807277D01*
X43108404Y-95997753D01*
X43108404Y-96235848D01*
X43060785Y-96426324D01*
X43013166Y-96521562D01*
X42965547Y-96569181D01*
X42870309Y-96616800D01*
X42775071Y-96616800D01*
X42679833Y-96569181D01*
X42632214Y-96521562D01*
X42584595Y-96426324D01*
X42536976Y-96235848D01*
X42536976Y-95997753D01*
X42584595Y-95807277D01*
X42632214Y-95712039D01*
X42679833Y-95664420D01*
X42775071Y-95616800D01*
X41190942Y-94622880D02*
X40857609Y-94146690D01*
X40619514Y-94622880D02*
X40619514Y-93622880D01*
X41000466Y-93622880D01*
X41095704Y-93670500D01*
X41143323Y-93718119D01*
X41190942Y-93813357D01*
X41190942Y-93956214D01*
X41143323Y-94051452D01*
X41095704Y-94099071D01*
X41000466Y-94146690D01*
X40619514Y-94146690D01*
X41571895Y-93718119D02*
X41619514Y-93670500D01*
X41714752Y-93622880D01*
X41952847Y-93622880D01*
X42048085Y-93670500D01*
X42095704Y-93718119D01*
X42143323Y-93813357D01*
X42143323Y-93908595D01*
X42095704Y-94051452D01*
X41524276Y-94622880D01*
X42143323Y-94622880D01*
X43095704Y-94622880D02*
X42524276Y-94622880D01*
X42809990Y-94622880D02*
X42809990Y-93622880D01*
X42714752Y-93765738D01*
X42619514Y-93860976D01*
X42524276Y-93908595D01*
X41267142Y-92590880D02*
X40933809Y-92114690D01*
X40695714Y-92590880D02*
X40695714Y-91590880D01*
X41076666Y-91590880D01*
X41171904Y-91638500D01*
X41219523Y-91686119D01*
X41267142Y-91781357D01*
X41267142Y-91924214D01*
X41219523Y-92019452D01*
X41171904Y-92067071D01*
X41076666Y-92114690D01*
X40695714Y-92114690D01*
X41648095Y-91686119D02*
X41695714Y-91638500D01*
X41790952Y-91590880D01*
X42029047Y-91590880D01*
X42124285Y-91638500D01*
X42171904Y-91686119D01*
X42219523Y-91781357D01*
X42219523Y-91876595D01*
X42171904Y-92019452D01*
X41600476Y-92590880D01*
X42219523Y-92590880D01*
X42600476Y-91686119D02*
X42648095Y-91638500D01*
X42743333Y-91590880D01*
X42981428Y-91590880D01*
X43076666Y-91638500D01*
X43124285Y-91686119D01*
X43171904Y-91781357D01*
X43171904Y-91876595D01*
X43124285Y-92019452D01*
X42552857Y-92590880D01*
X43171904Y-92590880D01*
X41267142Y-90558880D02*
X40933809Y-90082690D01*
X40695714Y-90558880D02*
X40695714Y-89558880D01*
X41076666Y-89558880D01*
X41171904Y-89606500D01*
X41219523Y-89654119D01*
X41267142Y-89749357D01*
X41267142Y-89892214D01*
X41219523Y-89987452D01*
X41171904Y-90035071D01*
X41076666Y-90082690D01*
X40695714Y-90082690D01*
X41648095Y-89654119D02*
X41695714Y-89606500D01*
X41790952Y-89558880D01*
X42029047Y-89558880D01*
X42124285Y-89606500D01*
X42171904Y-89654119D01*
X42219523Y-89749357D01*
X42219523Y-89844595D01*
X42171904Y-89987452D01*
X41600476Y-90558880D01*
X42219523Y-90558880D01*
X42552857Y-89558880D02*
X43171904Y-89558880D01*
X42838571Y-89939833D01*
X42981428Y-89939833D01*
X43076666Y-89987452D01*
X43124285Y-90035071D01*
X43171904Y-90130309D01*
X43171904Y-90368404D01*
X43124285Y-90463642D01*
X43076666Y-90511261D01*
X42981428Y-90558880D01*
X42695714Y-90558880D01*
X42600476Y-90511261D01*
X42552857Y-90463642D01*
X41267142Y-88526880D02*
X40933809Y-88050690D01*
X40695714Y-88526880D02*
X40695714Y-87526880D01*
X41076666Y-87526880D01*
X41171904Y-87574500D01*
X41219523Y-87622119D01*
X41267142Y-87717357D01*
X41267142Y-87860214D01*
X41219523Y-87955452D01*
X41171904Y-88003071D01*
X41076666Y-88050690D01*
X40695714Y-88050690D01*
X41648095Y-87622119D02*
X41695714Y-87574500D01*
X41790952Y-87526880D01*
X42029047Y-87526880D01*
X42124285Y-87574500D01*
X42171904Y-87622119D01*
X42219523Y-87717357D01*
X42219523Y-87812595D01*
X42171904Y-87955452D01*
X41600476Y-88526880D01*
X42219523Y-88526880D01*
X43076666Y-87860214D02*
X43076666Y-88526880D01*
X42838571Y-87479261D02*
X42600476Y-88193547D01*
X43219523Y-88193547D01*
X22280642Y-51251380D02*
X21947309Y-50775190D01*
X21709214Y-51251380D02*
X21709214Y-50251380D01*
X22090166Y-50251380D01*
X22185404Y-50299000D01*
X22233023Y-50346619D01*
X22280642Y-50441857D01*
X22280642Y-50584714D01*
X22233023Y-50679952D01*
X22185404Y-50727571D01*
X22090166Y-50775190D01*
X21709214Y-50775190D01*
X22661595Y-50346619D02*
X22709214Y-50299000D01*
X22804452Y-50251380D01*
X23042547Y-50251380D01*
X23137785Y-50299000D01*
X23185404Y-50346619D01*
X23233023Y-50441857D01*
X23233023Y-50537095D01*
X23185404Y-50679952D01*
X22613976Y-51251380D01*
X23233023Y-51251380D01*
X24137785Y-50251380D02*
X23661595Y-50251380D01*
X23613976Y-50727571D01*
X23661595Y-50679952D01*
X23756833Y-50632333D01*
X23994928Y-50632333D01*
X24090166Y-50679952D01*
X24137785Y-50727571D01*
X24185404Y-50822809D01*
X24185404Y-51060904D01*
X24137785Y-51156142D01*
X24090166Y-51203761D01*
X23994928Y-51251380D01*
X23756833Y-51251380D01*
X23661595Y-51203761D01*
X23613976Y-51156142D01*
X37974142Y-82277480D02*
X37640809Y-81801290D01*
X37402714Y-82277480D02*
X37402714Y-81277480D01*
X37783666Y-81277480D01*
X37878904Y-81325100D01*
X37926523Y-81372719D01*
X37974142Y-81467957D01*
X37974142Y-81610814D01*
X37926523Y-81706052D01*
X37878904Y-81753671D01*
X37783666Y-81801290D01*
X37402714Y-81801290D01*
X38355095Y-81372719D02*
X38402714Y-81325100D01*
X38497952Y-81277480D01*
X38736047Y-81277480D01*
X38831285Y-81325100D01*
X38878904Y-81372719D01*
X38926523Y-81467957D01*
X38926523Y-81563195D01*
X38878904Y-81706052D01*
X38307476Y-82277480D01*
X38926523Y-82277480D01*
X39783666Y-81277480D02*
X39593190Y-81277480D01*
X39497952Y-81325100D01*
X39450333Y-81372719D01*
X39355095Y-81515576D01*
X39307476Y-81706052D01*
X39307476Y-82087004D01*
X39355095Y-82182242D01*
X39402714Y-82229861D01*
X39497952Y-82277480D01*
X39688428Y-82277480D01*
X39783666Y-82229861D01*
X39831285Y-82182242D01*
X39878904Y-82087004D01*
X39878904Y-81848909D01*
X39831285Y-81753671D01*
X39783666Y-81706052D01*
X39688428Y-81658433D01*
X39497952Y-81658433D01*
X39402714Y-81706052D01*
X39355095Y-81753671D01*
X39307476Y-81848909D01*
X93591142Y-59379380D02*
X93257809Y-58903190D01*
X93019714Y-59379380D02*
X93019714Y-58379380D01*
X93400666Y-58379380D01*
X93495904Y-58427000D01*
X93543523Y-58474619D01*
X93591142Y-58569857D01*
X93591142Y-58712714D01*
X93543523Y-58807952D01*
X93495904Y-58855571D01*
X93400666Y-58903190D01*
X93019714Y-58903190D01*
X93972095Y-58474619D02*
X94019714Y-58427000D01*
X94114952Y-58379380D01*
X94353047Y-58379380D01*
X94448285Y-58427000D01*
X94495904Y-58474619D01*
X94543523Y-58569857D01*
X94543523Y-58665095D01*
X94495904Y-58807952D01*
X93924476Y-59379380D01*
X94543523Y-59379380D01*
X94876857Y-58379380D02*
X95543523Y-58379380D01*
X95114952Y-59379380D01*
X46728142Y-45155380D02*
X46394809Y-44679190D01*
X46156714Y-45155380D02*
X46156714Y-44155380D01*
X46537666Y-44155380D01*
X46632904Y-44203000D01*
X46680523Y-44250619D01*
X46728142Y-44345857D01*
X46728142Y-44488714D01*
X46680523Y-44583952D01*
X46632904Y-44631571D01*
X46537666Y-44679190D01*
X46156714Y-44679190D01*
X47109095Y-44250619D02*
X47156714Y-44203000D01*
X47251952Y-44155380D01*
X47490047Y-44155380D01*
X47585285Y-44203000D01*
X47632904Y-44250619D01*
X47680523Y-44345857D01*
X47680523Y-44441095D01*
X47632904Y-44583952D01*
X47061476Y-45155380D01*
X47680523Y-45155380D01*
X48251952Y-44583952D02*
X48156714Y-44536333D01*
X48109095Y-44488714D01*
X48061476Y-44393476D01*
X48061476Y-44345857D01*
X48109095Y-44250619D01*
X48156714Y-44203000D01*
X48251952Y-44155380D01*
X48442428Y-44155380D01*
X48537666Y-44203000D01*
X48585285Y-44250619D01*
X48632904Y-44345857D01*
X48632904Y-44393476D01*
X48585285Y-44488714D01*
X48537666Y-44536333D01*
X48442428Y-44583952D01*
X48251952Y-44583952D01*
X48156714Y-44631571D01*
X48109095Y-44679190D01*
X48061476Y-44774428D01*
X48061476Y-44964904D01*
X48109095Y-45060142D01*
X48156714Y-45107761D01*
X48251952Y-45155380D01*
X48442428Y-45155380D01*
X48537666Y-45107761D01*
X48585285Y-45060142D01*
X48632904Y-44964904D01*
X48632904Y-44774428D01*
X48585285Y-44679190D01*
X48537666Y-44631571D01*
X48442428Y-44583952D01*
X18612380Y-111132857D02*
X18136190Y-111466190D01*
X18612380Y-111704285D02*
X17612380Y-111704285D01*
X17612380Y-111323333D01*
X17660000Y-111228095D01*
X17707619Y-111180476D01*
X17802857Y-111132857D01*
X17945714Y-111132857D01*
X18040952Y-111180476D01*
X18088571Y-111228095D01*
X18136190Y-111323333D01*
X18136190Y-111704285D01*
X17707619Y-110751904D02*
X17660000Y-110704285D01*
X17612380Y-110609047D01*
X17612380Y-110370952D01*
X17660000Y-110275714D01*
X17707619Y-110228095D01*
X17802857Y-110180476D01*
X17898095Y-110180476D01*
X18040952Y-110228095D01*
X18612380Y-110799523D01*
X18612380Y-110180476D01*
X18612380Y-109704285D02*
X18612380Y-109513809D01*
X18564761Y-109418571D01*
X18517142Y-109370952D01*
X18374285Y-109275714D01*
X18183809Y-109228095D01*
X17802857Y-109228095D01*
X17707619Y-109275714D01*
X17660000Y-109323333D01*
X17612380Y-109418571D01*
X17612380Y-109609047D01*
X17660000Y-109704285D01*
X17707619Y-109751904D01*
X17802857Y-109799523D01*
X18040952Y-109799523D01*
X18136190Y-109751904D01*
X18183809Y-109704285D01*
X18231428Y-109609047D01*
X18231428Y-109418571D01*
X18183809Y-109323333D01*
X18136190Y-109275714D01*
X18040952Y-109228095D01*
X21152380Y-111123857D02*
X20676190Y-111457190D01*
X21152380Y-111695285D02*
X20152380Y-111695285D01*
X20152380Y-111314333D01*
X20200000Y-111219095D01*
X20247619Y-111171476D01*
X20342857Y-111123857D01*
X20485714Y-111123857D01*
X20580952Y-111171476D01*
X20628571Y-111219095D01*
X20676190Y-111314333D01*
X20676190Y-111695285D01*
X20152380Y-110790523D02*
X20152380Y-110171476D01*
X20533333Y-110504809D01*
X20533333Y-110361952D01*
X20580952Y-110266714D01*
X20628571Y-110219095D01*
X20723809Y-110171476D01*
X20961904Y-110171476D01*
X21057142Y-110219095D01*
X21104761Y-110266714D01*
X21152380Y-110361952D01*
X21152380Y-110647666D01*
X21104761Y-110742904D01*
X21057142Y-110790523D01*
X20152380Y-109552428D02*
X20152380Y-109457190D01*
X20200000Y-109361952D01*
X20247619Y-109314333D01*
X20342857Y-109266714D01*
X20533333Y-109219095D01*
X20771428Y-109219095D01*
X20961904Y-109266714D01*
X21057142Y-109314333D01*
X21104761Y-109361952D01*
X21152380Y-109457190D01*
X21152380Y-109552428D01*
X21104761Y-109647666D01*
X21057142Y-109695285D01*
X20961904Y-109742904D01*
X20771428Y-109790523D01*
X20533333Y-109790523D01*
X20342857Y-109742904D01*
X20247619Y-109695285D01*
X20200000Y-109647666D01*
X20152380Y-109552428D01*
X63572380Y-111123857D02*
X63096190Y-111457190D01*
X63572380Y-111695285D02*
X62572380Y-111695285D01*
X62572380Y-111314333D01*
X62620000Y-111219095D01*
X62667619Y-111171476D01*
X62762857Y-111123857D01*
X62905714Y-111123857D01*
X63000952Y-111171476D01*
X63048571Y-111219095D01*
X63096190Y-111314333D01*
X63096190Y-111695285D01*
X62572380Y-110790523D02*
X62572380Y-110171476D01*
X62953333Y-110504809D01*
X62953333Y-110361952D01*
X63000952Y-110266714D01*
X63048571Y-110219095D01*
X63143809Y-110171476D01*
X63381904Y-110171476D01*
X63477142Y-110219095D01*
X63524761Y-110266714D01*
X63572380Y-110361952D01*
X63572380Y-110647666D01*
X63524761Y-110742904D01*
X63477142Y-110790523D01*
X63572380Y-109219095D02*
X63572380Y-109790523D01*
X63572380Y-109504809D02*
X62572380Y-109504809D01*
X62715238Y-109600047D01*
X62810476Y-109695285D01*
X62858095Y-109790523D01*
X115116761Y-93292833D02*
X115164380Y-93149976D01*
X115164380Y-92911880D01*
X115116761Y-92816642D01*
X115069142Y-92769023D01*
X114973904Y-92721404D01*
X114878666Y-92721404D01*
X114783428Y-92769023D01*
X114735809Y-92816642D01*
X114688190Y-92911880D01*
X114640571Y-93102357D01*
X114592952Y-93197595D01*
X114545333Y-93245214D01*
X114450095Y-93292833D01*
X114354857Y-93292833D01*
X114259619Y-93245214D01*
X114212000Y-93197595D01*
X114164380Y-93102357D01*
X114164380Y-92864261D01*
X114212000Y-92721404D01*
X114164380Y-92388071D02*
X115164380Y-92149976D01*
X114450095Y-91959500D01*
X115164380Y-91769023D01*
X114164380Y-91530928D01*
X115164380Y-90626166D02*
X115164380Y-91197595D01*
X115164380Y-90911880D02*
X114164380Y-90911880D01*
X114307238Y-91007119D01*
X114402476Y-91102357D01*
X114450095Y-91197595D01*
X42838904Y-29109880D02*
X43410333Y-29109880D01*
X43124619Y-30109880D02*
X43124619Y-29109880D01*
X43743666Y-30109880D02*
X43743666Y-29109880D01*
X44124619Y-29109880D01*
X44219857Y-29157500D01*
X44267476Y-29205119D01*
X44315095Y-29300357D01*
X44315095Y-29443214D01*
X44267476Y-29538452D01*
X44219857Y-29586071D01*
X44124619Y-29633690D01*
X43743666Y-29633690D01*
X44696047Y-29205119D02*
X44743666Y-29157500D01*
X44838904Y-29109880D01*
X45077000Y-29109880D01*
X45172238Y-29157500D01*
X45219857Y-29205119D01*
X45267476Y-29300357D01*
X45267476Y-29395595D01*
X45219857Y-29538452D01*
X44648428Y-30109880D01*
X45267476Y-30109880D01*
X45648428Y-29205119D02*
X45696047Y-29157500D01*
X45791285Y-29109880D01*
X46029380Y-29109880D01*
X46124619Y-29157500D01*
X46172238Y-29205119D01*
X46219857Y-29300357D01*
X46219857Y-29395595D01*
X46172238Y-29538452D01*
X45600809Y-30109880D01*
X46219857Y-30109880D01*
X66778404Y-108104380D02*
X67349833Y-108104380D01*
X67064119Y-109104380D02*
X67064119Y-108104380D01*
X67683166Y-109104380D02*
X67683166Y-108104380D01*
X68064119Y-108104380D01*
X68159357Y-108152000D01*
X68206976Y-108199619D01*
X68254595Y-108294857D01*
X68254595Y-108437714D01*
X68206976Y-108532952D01*
X68159357Y-108580571D01*
X68064119Y-108628190D01*
X67683166Y-108628190D01*
X68635547Y-108199619D02*
X68683166Y-108152000D01*
X68778404Y-108104380D01*
X69016500Y-108104380D01*
X69111738Y-108152000D01*
X69159357Y-108199619D01*
X69206976Y-108294857D01*
X69206976Y-108390095D01*
X69159357Y-108532952D01*
X68587928Y-109104380D01*
X69206976Y-109104380D01*
X70159357Y-109104380D02*
X69587928Y-109104380D01*
X69873642Y-109104380D02*
X69873642Y-108104380D01*
X69778404Y-108247238D01*
X69683166Y-108342476D01*
X69587928Y-108390095D01*
X93539880Y-98043904D02*
X94349404Y-98043904D01*
X94444642Y-97996285D01*
X94492261Y-97948666D01*
X94539880Y-97853428D01*
X94539880Y-97662952D01*
X94492261Y-97567714D01*
X94444642Y-97520095D01*
X94349404Y-97472476D01*
X93539880Y-97472476D01*
X93635119Y-97043904D02*
X93587500Y-96996285D01*
X93539880Y-96901047D01*
X93539880Y-96662952D01*
X93587500Y-96567714D01*
X93635119Y-96520095D01*
X93730357Y-96472476D01*
X93825595Y-96472476D01*
X93968452Y-96520095D01*
X94539880Y-97091523D01*
X94539880Y-96472476D01*
X100905880Y-78485904D02*
X101715404Y-78485904D01*
X101810642Y-78438285D01*
X101858261Y-78390666D01*
X101905880Y-78295428D01*
X101905880Y-78104952D01*
X101858261Y-78009714D01*
X101810642Y-77962095D01*
X101715404Y-77914476D01*
X100905880Y-77914476D01*
X101239214Y-77009714D02*
X101905880Y-77009714D01*
X100858261Y-77247809D02*
X101572547Y-77485904D01*
X101572547Y-76866857D01*
X101346095Y-98198880D02*
X101346095Y-99008404D01*
X101393714Y-99103642D01*
X101441333Y-99151261D01*
X101536571Y-99198880D01*
X101727047Y-99198880D01*
X101822285Y-99151261D01*
X101869904Y-99103642D01*
X101917523Y-99008404D01*
X101917523Y-98198880D01*
X102822285Y-98198880D02*
X102631809Y-98198880D01*
X102536571Y-98246500D01*
X102488952Y-98294119D01*
X102393714Y-98436976D01*
X102346095Y-98627452D01*
X102346095Y-99008404D01*
X102393714Y-99103642D01*
X102441333Y-99151261D01*
X102536571Y-99198880D01*
X102727047Y-99198880D01*
X102822285Y-99151261D01*
X102869904Y-99103642D01*
X102917523Y-99008404D01*
X102917523Y-98770309D01*
X102869904Y-98675071D01*
X102822285Y-98627452D01*
X102727047Y-98579833D01*
X102536571Y-98579833D01*
X102441333Y-98627452D01*
X102393714Y-98675071D01*
X102346095Y-98770309D01*
X95392976Y-53574380D02*
X96059642Y-54574380D01*
X96059642Y-53574380D02*
X95392976Y-54574380D01*
X96964404Y-54574380D02*
X96392976Y-54574380D01*
X96678690Y-54574380D02*
X96678690Y-53574380D01*
X96583452Y-53717238D01*
X96488214Y-53812476D01*
X96392976Y-53860095D01*
X109504190Y-76268690D02*
X109980380Y-76268690D01*
X108980380Y-76602023D02*
X109504190Y-76268690D01*
X108980380Y-75935357D01*
X109980380Y-75078214D02*
X109980380Y-75649642D01*
X109980380Y-75363928D02*
X108980380Y-75363928D01*
X109123238Y-75459166D01*
X109218476Y-75554404D01*
X109266095Y-75649642D01*
M02*
