M48
; DRILL file {KiCad (5.1.5)-3} date 6/21/2020 17:56:13
; FORMAT={-:-/ absolute / inch / decimal}
; #@! TF.CreationDate,2020-06-21T17:56:13-07:00
; #@! TF.GenerationSoftware,Kicad,Pcbnew,(5.1.5)-3
; #@! TF.FileFunction,Plated,1,4,PTH
FMAT,2
INCH
T1C0.0130
T2C0.0276
T3C0.0295
T4C0.0300
T5C0.0315
T6C0.0394
T7C0.0433
%
G90
G05
T1
X0.65Y-4.26
X0.6937Y-0.9015
X0.75Y-4.26
X0.8199Y-1.7316
X0.8253Y-1.9719
X0.8357Y-1.3239
X0.9576Y-1.5704
X1.0041Y-1.3957
X1.0046Y-1.4719
X1.0342Y-3.6664
X1.0369Y-2.3836
X1.0605Y-1.1236
X1.0912Y-1.1077
X1.0965Y-3.0353
X1.1081Y-2.27
X1.1349Y-2.0349
X1.135Y-1.445
X1.135Y-1.83
X1.1375Y-1.6525
X1.1747Y-1.2114
X1.185Y-1.0925
X1.1875Y-1.575
X1.1875Y-1.7025
X1.1944Y-0.6599
X1.2017Y-1.3971
X1.2066Y-1.629
X1.2225Y-1.34
X1.2227Y-0.9015
X1.2454Y-1.8046
X1.2478Y-2.2131
X1.268Y-1.779
X1.275Y-1.9125
X1.275Y-2.0875
X1.2907Y-1.675
X1.2962Y-1.7278
X1.322Y-0.767
X1.325Y-1.5175
X1.3275Y-1.34
X1.3415Y-1.717
X1.3489Y-1.7536
X1.3775Y-2.0875
X1.3845Y-1.1851
X1.3898Y-0.7548
X1.394Y-1.0683
X1.398Y-1.8408
X1.4025Y-1.91
X1.4175Y-2.0825
X1.4205Y-1.4203
X1.4325Y-2.8366
X1.439Y-1.3317
X1.4543Y-2.2071
X1.4543Y-2.39
X1.4548Y-1.9119
X1.4745Y-1.3731
X1.475Y-1.65
X1.4808Y-1.9325
X1.4893Y-2.2076
X1.4893Y-2.4386
X1.5052Y-2.0877
X1.5422Y-2.9166
X1.5534Y-2.9932
X1.5575Y-1.3425
X1.5575Y-1.5175
X1.5646Y-1.7022
X1.5897Y-2.0988
X1.5906Y-2.8011
X1.5974Y-2.4469
X1.603Y-1.7356
X1.61Y-2.4875
X1.61Y-2.58
X1.61Y-2.67
X1.61Y-3.0725
X1.6346Y-1.0855
X1.645Y-1.445
X1.6452Y-1.8302
X1.65Y-1.65
X1.65Y-2.0375
X1.653Y-3.0128
X1.6556Y-1.9581
X1.6604Y-2.7173
X1.6632Y-2.7623
X1.6724Y-3.4647
X1.6957Y-3.3151
X1.7511Y-3.8034
X1.763Y-3.754
X1.7638Y-1.0735
X1.7644Y-1.4975
X1.7667Y-1.695
X1.772Y-1.3207
X1.7758Y-1.5475
X1.7801Y-1.6254
X1.7897Y-3.2986
X1.8004Y-1.3951
X1.8008Y-2.8218
X1.8068Y-3.3282
X1.8084Y-2.3415
X1.8111Y-0.9156
X1.8115Y-2.5948
X1.8125Y-2.2224
X1.8184Y-3.8485
X1.8235Y-2.0093
X1.825Y-1.8775
X1.8355Y-2.0895
X1.8355Y-2.4233
X1.8441Y-1.3695
X1.8463Y-3.9045
X1.858Y-2.5217
X1.8606Y-1.0725
X1.8609Y-0.8915
X1.885Y-1.4993
X1.885Y-1.8808
X1.8855Y-1.0973
X1.8857Y-2.1317
X1.8954Y-2.2337
X1.8986Y-2.6298
X1.8996Y-2.4961
X1.9075Y-1.5575
X1.911Y-0.6499
X1.9294Y-2.7096
X1.9307Y-1.1996
X1.931Y-2.1394
X1.933Y-1.1125
X1.938Y-0.7744
X1.94Y-1.3795
X1.9404Y-2.4191
X1.9446Y-2.4979
X1.955Y-2.2935
X1.956Y-1.2741
X1.9682Y-2.606
X1.9915Y-2.5827
X2.0034Y-1.8241
X2.0058Y-1.1752
X2.0267Y-1.2131
X2.0287Y-3.689
X2.029Y-2.837
X2.0303Y-2.8711
X2.038Y-1.9086
X2.0387Y-2.1115
X2.0414Y-2.4029
X2.0655Y-2.3591
X2.076Y-2.6758
X2.0839Y-2.8988
X2.1052Y-2.8293
X2.1347Y-2.6835
X2.1349Y-2.4409
X2.1534Y-1.8466
X2.1729Y-2.2114
X2.1729Y-1.9086
X2.1763Y-1.8105
X2.1763Y-2.1157
X2.1849Y-2.2663
X2.185Y-1.09
X2.1853Y-1.7037
X2.1895Y-1.6259
X2.19Y-1.5614
X2.2003Y-2.6849
X2.2037Y-2.3575
X2.2156Y-0.8675
X2.2175Y-2.5919
X2.245Y-2.8558
X2.2524Y-0.866
X2.2624Y-1.1125
X2.2647Y-1.0498
X2.2947Y-1.6993
X2.3Y-1.9503
X2.3134Y-1.1567
X2.3168Y-3.4384
X2.3481Y-0.9449
X2.3541Y-3.689
X2.3597Y-3.0107
X2.3625Y-3.4596
X2.3645Y-3.9944
X2.3816Y-2.6917
X2.3823Y-0.9444
X2.3891Y-1.0981
X2.3914Y-3.6918
X2.4058Y-1.3841
X2.4331Y-0.8983
X2.4354Y-2.9446
X2.4391Y-2.6502
X2.4486Y-2.9114
X2.4491Y-0.9294
X2.4493Y-3.5792
X2.452Y-2.6958
X2.4801Y-2.6384
X2.5332Y-3.8034
X2.5489Y-2.6039
X2.5548Y-1.1821
X2.5824Y-2.6039
X2.6313Y-3.1115
X2.665Y-1.63
X2.665Y-1.7325
X2.665Y-1.835
X2.665Y-2.0325
X2.6772Y-4.2581
X2.6834Y-3.9823
X2.7027Y-2.8282
X2.7223Y-2.4757
X2.7358Y-2.6384
X2.7452Y-3.4362
X2.7486Y-3.6572
X2.7655Y-3.487
X2.7659Y-2.6048
X2.7967Y-3.061
X2.812Y-1.6363
X2.8125Y-3.9477
X2.8225Y-1.5325
X2.8225Y-2.1325
X2.8299Y-3.4362
X2.85Y-4.255
X2.8513Y-2.0077
X2.8873Y-2.024
X2.9164Y-2.921
X2.9466Y-3.774
X2.9589Y-1.8733
X2.9601Y-1.9063
X2.9649Y-0.9041
X2.9649Y-1.1245
X2.9698Y-1.6533
X2.9833Y-2.6164
X3.0204Y-2.6609
X3.0225Y-1.6325
X3.0225Y-1.7325
X3.0225Y-1.835
X3.0225Y-2.0325
X3.0289Y-2.8205
X3.0318Y-2.876
X3.0423Y-3.4689
X3.043Y-1.89
X3.0494Y-2.9519
X3.0749Y-1.9137
X3.0921Y-1.3636
X3.0967Y-1.5818
X3.1361Y-1.0108
X3.1473Y-3.0849
X3.1839Y-1.4954
X3.1938Y-3.6137
X3.1963Y-2.0301
X3.1976Y-1.7325
X3.2001Y-2.6949
X3.2053Y-3.444
X3.2204Y-3.5935
X3.2362Y-2.6779
X3.2368Y-3.0621
X3.2411Y-3.4311
X3.2871Y-3.5833
X3.2916Y-1.3884
X3.2966Y-2.6764
X3.306Y-1.6979
X3.3314Y-2.6633
X3.3462Y-3.1637
X3.3842Y-1.4699
X3.3859Y-2.6251
X3.3906Y-2.0851
X3.4565Y-3.248
X3.4901Y-3.7138
X3.5624Y-0.9992
X3.6125Y-1.8275
X3.615Y-3.905
X3.6528Y-0.9572
X3.6528Y-1.3454
X3.6548Y-3.8583
X3.6797Y-2.4145
X3.6936Y-2.6967
X3.7161Y-2.6416
X3.7238Y-3.94
X3.7386Y-2.5499
X3.7421Y-3.8601
X3.7443Y-3.1909
X3.7573Y-3.917
X3.7773Y-3.2255
X3.8025Y-1.635
X3.8025Y-2.335
X3.835Y-1.09
X3.8832Y-0.9001
X3.9025Y-2.5402
X3.9025Y-3.14
X3.9425Y-3.99
X3.95Y-4.0825
X3.95Y-4.3775
X3.9625Y-2.0325
X4.011Y-2.5621
X4.12Y-3.99
X4.4352Y-3.2319
X4.4356Y-2.7527
T2
X2.6975Y-4.3425
X1.755Y-1.2325
T3
X3.97Y-3.7475
X4.02Y-3.7475
X4.07Y-3.7475
T4
X0.735Y-0.71
X0.785Y-0.81
X0.835Y-0.71
X0.885Y-0.81
X0.935Y-0.71
X0.985Y-0.81
X1.035Y-0.71
X1.085Y-0.81
X1.135Y-0.71
X1.185Y-0.81
X1.235Y-0.71
X1.285Y-0.81
X1.335Y-0.71
X1.385Y-0.81
X1.435Y-0.71
X1.485Y-0.81
X1.535Y-0.71
X1.585Y-0.81
X1.635Y-0.71
X1.685Y-0.81
X1.735Y-0.71
X1.785Y-0.81
X1.835Y-0.71
X1.885Y-0.81
X1.935Y-0.71
X1.985Y-0.81
X2.035Y-0.71
X2.085Y-0.81
X2.135Y-0.71
X2.185Y-0.81
X2.235Y-0.71
X2.285Y-0.81
X2.335Y-0.71
X2.385Y-0.81
X2.435Y-0.71
X2.485Y-0.81
X2.735Y-0.71
X2.785Y-0.81
X2.835Y-0.71
X2.885Y-0.81
X2.935Y-0.71
X2.985Y-0.81
X3.035Y-0.71
X3.085Y-0.81
X3.135Y-0.71
X3.185Y-0.81
X3.235Y-0.71
X3.285Y-0.81
X3.335Y-0.71
X3.385Y-0.81
X3.435Y-0.71
X3.485Y-0.81
X3.535Y-0.71
X3.585Y-0.81
X3.635Y-0.71
X3.685Y-0.81
X3.735Y-0.71
X3.785Y-0.81
X3.835Y-0.71
X3.885Y-0.81
X3.935Y-0.71
X3.985Y-0.81
X4.035Y-0.71
X4.085Y-0.81
X4.135Y-0.71
X4.185Y-0.81
X4.235Y-0.71
X4.285Y-0.81
X4.335Y-0.71
X4.385Y-0.81
X4.435Y-0.71
X4.485Y-0.81
X2.25Y-1.2325
X2.25Y-1.3325
X2.25Y-1.4325
X2.25Y-1.5325
X2.25Y-1.6325
X2.25Y-1.7325
X2.25Y-1.8325
X2.25Y-1.9325
X2.25Y-2.0325
X2.25Y-2.1325
X2.25Y-2.2325
X2.25Y-2.3325
X2.25Y-2.4325
X2.35Y-1.2325
X2.35Y-1.3325
X2.35Y-1.4325
X2.35Y-1.5325
X2.35Y-1.6325
X2.35Y-1.7325
X2.35Y-1.8325
X2.35Y-1.9325
X2.35Y-2.0325
X2.35Y-2.1325
X2.35Y-2.2325
X2.35Y-2.3325
X2.35Y-2.4325
X2.45Y-1.2325
X2.45Y-1.3325
X2.45Y-1.4325
X2.45Y-1.5325
X2.45Y-1.6325
X2.45Y-1.7325
X2.45Y-1.8325
X2.45Y-1.9325
X2.45Y-2.0325
X2.45Y-2.1325
X2.45Y-2.2325
X2.45Y-2.3325
X2.45Y-2.4325
X2.55Y-1.2325
X2.55Y-1.3325
X2.55Y-1.4325
X2.55Y-1.5325
X2.55Y-1.9325
X2.55Y-2.1325
X2.55Y-2.2325
X2.55Y-2.3325
X2.55Y-2.4325
X2.65Y-1.2325
X2.65Y-1.3325
X2.65Y-1.4325
X2.65Y-2.2325
X2.65Y-2.3325
X2.65Y-2.4325
X2.75Y-1.2325
X2.75Y-1.3325
X2.75Y-1.4325
X2.75Y-2.2325
X2.75Y-2.3325
X2.75Y-2.4325
X2.85Y-1.2325
X2.85Y-1.3325
X2.85Y-1.4325
X2.85Y-2.2325
X2.85Y-2.3325
X2.85Y-2.4325
X2.95Y-1.2325
X2.95Y-1.3325
X2.95Y-1.4325
X2.95Y-2.2325
X2.95Y-2.3325
X2.95Y-2.4325
X3.05Y-1.2325
X3.05Y-1.3325
X3.05Y-1.4325
X3.05Y-1.5325
X3.05Y-2.1325
X3.05Y-2.2325
X3.05Y-2.3325
X3.05Y-2.4325
X3.15Y-1.2325
X3.15Y-1.3325
X3.15Y-1.4325
X3.15Y-1.5325
X3.15Y-1.9325
X3.15Y-2.1325
X3.15Y-2.2325
X3.15Y-2.3325
X3.15Y-2.4325
X3.25Y-1.2325
X3.25Y-1.3325
X3.25Y-1.4325
X3.25Y-1.5325
X3.25Y-1.6325
X3.25Y-1.7325
X3.25Y-1.8325
X3.25Y-1.9325
X3.25Y-2.0325
X3.25Y-2.1325
X3.25Y-2.2325
X3.25Y-2.3325
X3.25Y-2.4325
X3.35Y-1.2325
X3.35Y-1.3325
X3.35Y-1.4325
X3.35Y-1.5325
X3.35Y-1.6325
X3.35Y-1.7325
X3.35Y-1.8325
X3.35Y-1.9325
X3.35Y-2.0325
X3.35Y-2.1325
X3.35Y-2.2325
X3.35Y-2.3325
X3.35Y-2.4325
X3.45Y-1.2325
X3.45Y-1.3325
X3.45Y-1.4325
X3.45Y-1.5325
X3.45Y-1.6325
X3.45Y-1.7325
X3.45Y-1.8325
X3.45Y-1.9325
X3.45Y-2.0325
X3.45Y-2.1325
X3.45Y-2.2325
X3.45Y-2.3325
X3.45Y-2.4325
T5
X2.1125Y-3.53
X2.1125Y-4.13
X2.2125Y-3.53
X2.2125Y-4.13
X2.3125Y-3.53
X2.3125Y-4.13
X2.4125Y-3.53
X2.4125Y-4.13
X2.5125Y-3.53
X2.5125Y-4.13
X2.6125Y-3.53
X2.6125Y-4.13
X2.7125Y-3.53
X2.7125Y-4.13
X2.8125Y-3.53
X2.8125Y-4.13
X2.9125Y-3.53
X2.9125Y-4.13
X3.0125Y-3.53
X3.0125Y-4.13
X3.1125Y-3.53
X3.1125Y-4.13
X3.2125Y-3.53
X3.2125Y-4.13
X3.3125Y-3.53
X3.3125Y-4.13
X3.4125Y-3.53
X3.4125Y-4.13
X3.5125Y-3.53
X3.5125Y-4.13
X3.6125Y-3.53
X3.6125Y-4.13
X1.285Y-2.4476
X1.285Y-2.5264
X1.285Y-2.6051
X1.285Y-2.6839
X1.285Y-2.7626
X1.285Y-2.8413
X1.285Y-2.9201
X1.285Y-2.9988
X1.285Y-3.0776
X1.285Y-3.1563
X1.285Y-3.235
X1.285Y-3.3138
X1.285Y-3.3925
X1.285Y-3.4713
X1.285Y-3.55
X1.285Y-3.6287
X1.285Y-3.7075
X1.285Y-3.7862
X1.285Y-3.865
X1.285Y-3.9437
X1.285Y-4.0224
X1.285Y-4.1012
X1.3637Y-2.4476
X1.3637Y-2.5264
X1.3637Y-2.6051
X1.3637Y-2.6839
X1.3637Y-2.7626
X1.3637Y-2.8413
X1.3637Y-2.9201
X1.3637Y-2.9988
X1.3637Y-3.0776
X1.3637Y-3.1563
X1.3637Y-3.235
X1.3637Y-3.3138
X1.3637Y-3.3925
X1.3637Y-3.4713
X1.3637Y-3.55
X1.3637Y-3.6287
X1.3637Y-3.7075
X1.3637Y-3.7862
X1.3637Y-3.865
X1.3637Y-3.9437
X1.3637Y-4.0224
X1.3637Y-4.1012
X2.0025Y-2.76
X2.0025Y-3.36
X2.1025Y-2.76
X2.1025Y-3.36
X2.2025Y-2.76
X2.2025Y-3.36
X2.3025Y-2.76
X2.3025Y-3.36
X2.4025Y-2.76
X2.4025Y-3.36
X2.5025Y-2.76
X2.5025Y-3.36
X2.6025Y-2.76
X2.6025Y-3.36
X2.7025Y-2.76
X2.7025Y-3.36
X2.8025Y-2.76
X2.8025Y-3.36
X2.9025Y-2.76
X2.9025Y-3.36
X3.0025Y-2.76
X3.0025Y-3.36
X3.1025Y-2.76
X3.1025Y-3.36
X3.2025Y-2.76
X3.2025Y-3.36
X3.3025Y-2.76
X3.3025Y-3.36
X3.4025Y-2.76
X3.4025Y-3.36
X3.5025Y-2.76
X3.5025Y-3.36
X3.6025Y-2.76
X3.6025Y-3.36
X3.7025Y-2.76
X3.7025Y-3.36
X3.8025Y-2.76
X3.8025Y-3.36
X3.9025Y-2.76
X3.9025Y-3.36
T6
X4.535Y-2.7975
X4.535Y-2.8975
X4.535Y-2.9975
X4.535Y-3.0975
X4.535Y-3.1975
X4.535Y-3.2975
X4.2Y-1.8
X4.2Y-1.9
X4.2Y-2.0
X4.2Y-2.1
X4.2Y-2.2
X4.2Y-2.3
X0.685Y-1.0675
X0.685Y-1.1675
X0.685Y-1.2675
X0.685Y-1.3675
X0.685Y-1.4675
X0.785Y-1.0675
X0.785Y-1.1675
X0.785Y-1.2675
X0.785Y-1.3675
X0.785Y-1.4675
X0.7Y-3.2
X0.7Y-3.3
X0.7Y-3.4
X0.7Y-3.5
X0.7Y-3.6
X0.7Y-3.7
X0.7Y-3.8
X0.7Y-3.9
X0.7Y-4.0
X0.8Y-3.2
X0.8Y-3.3
X0.8Y-3.4
X0.8Y-3.5
X0.8Y-3.6
X0.8Y-3.7
X0.8Y-3.8
X0.8Y-3.9
X0.8Y-4.0
X4.4Y-2.3
X4.5Y-2.3
X0.65Y-4.51
X0.75Y-4.51
X0.85Y-4.51
X0.95Y-4.51
X1.05Y-4.51
X1.15Y-4.51
X1.25Y-4.51
X1.35Y-4.51
X1.45Y-4.51
X1.55Y-4.51
X1.65Y-4.51
X1.75Y-4.51
X1.85Y-4.51
X1.95Y-4.51
X2.05Y-4.51
X2.15Y-4.51
X2.25Y-4.51
X2.35Y-4.51
X2.45Y-4.51
X2.55Y-4.51
X2.65Y-4.51
X2.75Y-4.51
X2.85Y-4.51
X2.95Y-4.51
X3.05Y-4.51
X3.15Y-4.51
X3.25Y-4.51
X3.35Y-4.51
X3.45Y-4.51
X3.55Y-4.51
X3.65Y-4.51
X3.75Y-4.51
X3.85Y-4.51
X3.95Y-4.51
X4.05Y-4.51
X4.15Y-4.51
X4.25Y-4.51
X4.35Y-4.51
X4.45Y-4.51
X4.55Y-4.51
T7
X4.2603Y-3.4925
X4.2603Y-3.7484
X4.4375Y-3.4925
X4.4375Y-3.7484
T6
G00X4.2Y-4.1994
M15
G01X4.2Y-4.1206
M16
G05
G00X4.3575Y-3.975
M15
G01X4.2787Y-3.975
M16
G05
G00X4.4362Y-4.1994
M15
G01X4.4362Y-4.1206
M16
G05
T0
M30
